<?xml version="1.0" encoding="UTF-8"?>
<svg xmlns="http://www.w3.org/2000/svg" viewBox="0 0 165.83 110.14">
  <defs>
    <style>
      .cls-1 {
        mix-blend-mode: screen;
      }

      .cls-1, .cls-2, .cls-3, .cls-4 {
        fill: #aee8ff;
      }

      .cls-1, .cls-4 {
        opacity: .5;
      }

      .cls-5 {
        fill: #fff;
      }

      .cls-6 {
        fill: #89d8f7;
      }

      .cls-7 {
        fill: #5187e5;
      }

      .cls-3, .cls-4 {
        mix-blend-mode: multiply;
      }

      .cls-8 {
        isolation: isolate;
      }
    </style>
  </defs>
  <g class="cls-8">
    <g id="Layer_2" data-name="Layer 2">
      <g id="OBJECTS">
        <g>
          <path class="cls-6" d="M137.94,54.96c.01,.57,.01,1.15,0,1.71-.01,1.97-.13,3.9-.33,5.78-.11,1.01-.24,2-.4,2.98v.02c-.22,1.33-.48,2.65-.79,3.93v.03c-.27,1.13-.57,2.23-.9,3.32,0,0,0,.01,0,.01-.82,2.72-1.85,5.31-3.06,7.78-.82,1.64-1.7,3.22-2.66,4.75-4.19,6.64-9.81,12.12-16.42,16.21-8.75,5.43-19.21,8.43-30.38,8.43-2.31,.2-4.56,.27-6.74,.2-2.23-.06-4.38-.27-6.46-.62-7.43-1.19-14.02-4.03-19.61-8.13,0-.01-.02-.01-.03-.02-1.41-1.02-2.75-2.12-4.02-3.31-.31-.28-.61-.57-.91-.86-.79-.77-1.56-1.56-2.29-2.39-.57-.64-1.13-1.31-1.67-1.98h0c-.65-.81-1.27-1.65-1.87-2.5-2.28-3.24-4.2-6.8-5.73-10.58-.63-1.55-1.2-3.14-1.69-4.76-1.52-4.95-2.41-10.22-2.62-15.66-.02-.63-.04-1.27-.04-1.9h0c0-.23,0-.43,0-.65,0-4.17,.28-8.4,.9-12.54h0c.09-.68,.2-1.35,.32-2.02,.17-.92,.34-1.84,.54-2.74,.21-1,.44-1.98,.71-2.95,.02-.1,.05-.2,.08-.3,1.86-6.94,4.84-13.37,9.19-18.58,2.11-2.52,4.52-4.78,7.16-6.76h0c2.78-2.11,5.83-3.9,9.06-5.4,2.25-1.04,4.59-1.93,7-2.67h0c.21-.07,.42-.14,.63-.2,1.13-.34,2.28-.64,3.44-.9,1.29-.31,2.58-.57,3.9-.79,3.18-.54,6.43-.84,9.69-.89,.35-.01,.71-.01,1.06-.01,2.79,0,5.52,.17,8.18,.52,1.93,.25,3.83,.59,5.69,1.02h.01c4.02,.92,7.83,2.26,11.42,3.96,.53,.25,1.06,.52,1.58,.79,1.44,.75,2.85,1.57,4.2,2.45,1.6,1.03,3.14,2.14,4.6,3.35,.39,.31,.78,.64,1.16,.97,1.48,1.29,2.9,2.67,4.22,4.14,4.32,4.75,7.78,10.43,10.15,16.91v.02c.08,.19,.15,.39,.22,.58,0,.03,.02,.07,.04,.1v.03c.79,2.19,1.44,4.47,1.96,6.83,.25,1.11,.46,2.24,.64,3.4,.06,.29,.11,.58,.15,.88,.03,.21,.06,.41,.09,.62,.2,1.37,.34,2.76,.44,4.18,.11,1.38,.17,2.78,.2,4.21Z"/>
          <path class="cls-6" d="M128.84,86.72c-.34,.5-.69,1-1.05,1.48-5.23-.61-10.86-1.44-16.81-2.52-8.34-1.52-17.28-3.6-26.64-6.16-2.34-.62-4.7-1.3-7.1-1.99-2.37-.69-4.78-1.44-7.22-2.2-4.86-1.54-9.8-3.18-14.77-5-8.55-3.13-17.27-6.59-25.88-10.66-.01-.12-.02-.25-.02-.37-.02-.63-.04-1.27-.04-1.9h0c0-.23,0-.43,0-.65v-.06c8.97,4.13,18.06,7.64,26.98,10.76,4.96,1.72,9.86,3.36,14.68,4.87,2.41,.76,4.8,1.48,7.18,2.19,2.36,.7,4.71,1.4,7.03,2.05,9.26,2.63,18.11,4.8,26.3,6.68,6.17,1.38,11.98,2.57,17.37,3.48Z"/>
          <path class="cls-2" d="M81.93,.01c-5.85,4.55-11.83,9.48-17.75,12.49-9.85,5-21.48,18.34-19.48,9.34,1.04-4.7,10.63-12.58,19.56-19.05h0c.21-.07,.42-.14,.63-.2C70.35,.97,76.12,.1,81.93,.01Z"/>
          <path class="cls-2" d="M109.87,6.29c-7.89,7.43-18.96,16.8-26.25,18.59-12.41,3.05-15.25,7.62-24.79,13.29-9.53,5.67-24.13,10-17.57,1.67,6.56-8.34,18.77-11.34,25.96-18.67,7.18-7.33,8.15-4.33,16.4-10,4.29-2.95,9.36-6.7,13.24-9.63h.01c4.02,.92,7.83,2.26,11.42,3.96,.53,.25,1.06,.52,1.58,.79Z"/>
          <path class="cls-2" d="M85.7,42.67c-10.25,4.75-14.42,2.5-23.33,11.5-8.92,9-10.37,11.5-17.9,14.5-3.32,1.32-8.14,3.86-12.5,6.29-.37-1.21-.71-2.44-1-3.69-.75-3.15-1.25-6.4-1.49-9.73-.06-.74-.1-1.49-.13-2.24,3.22-.96,7.78-2.44,11.91-4.23,7.44-3.23,10.33-8.9,22.55-11.9s8.7-7.67,19.96-11.67,11.93-13.33,15.93-8c4,5.34-3.75,14.42-14,19.17Z"/>
          <path class="cls-2" d="M136.42,41.67c-3.79,2.03-7.56,3.42-10.14,2.81-7.17-1.69,.92-6.81-1.83-10.06s-6.5,.25-13.5,6-13.25,8.5-19.48,10.99-11.77,7.76-18.77,12.76-11.75,2-11.46,0c.28-2,8.71-9,13.96-11.5s12.5-4.75,16.5-8.19,7.25-5.81,11.32-9.56c4.06-3.75,1.43-11,4.18-14.26,1.85-2.2,7.8-6.2,11.47-8.57,.39,.31,.78,.64,1.16,.97,1.48,1.29,2.9,2.67,4.22,4.14,4.45,4.9,7.99,10.78,10.37,17.51,.8,2.23,1.47,4.55,2,6.96Z"/>
          <path class="cls-2" d="M51.95,80.92c-1.75,5.75-7.25,7.75-5.5,11.5,.63,1.35-.08,3.08-1.23,4.75-.79-.77-1.56-1.56-2.29-2.39-.57-.64-1.13-1.31-1.67-1.98h0c-.65-.81-1.27-1.65-1.87-2.5-2.28-3.24-4.2-6.8-5.73-10.58,2.75-1.88,8.24-5.4,12.04-6.3,5.25-1.25,9.5-5,11.5-2.25s-3.5,4-5.25,9.75Z"/>
          <path class="cls-2" d="M61.23,74.42s-5.77,7.5-6.52,11,1.32,5,6.54,2.5,6.05-11.25,15.01-13.5c8.95-2.25,23.23-9.75,29.34-13.75,6.11-4,12.86-12.75,7.36-14s-9.75,3.8-16.75,8.4c-7,4.6-18.5,11.6-24.25,14.1s-6.95,3.25-10.73,5.25Z"/>
          <path class="cls-2" d="M137.61,62.45c-.11,1.01-.24,2-.4,2.98v.02c-.84,5.16-2.34,9.97-4.44,14.39-.1,.23-.21,.45-.32,.68-.82,1.64-1.7,3.22-2.66,4.75-4.19,6.64-9.81,12.12-16.42,16.21-8.75,5.43-19.21,8.43-30.38,8.43-2.31,.2-4.56,.27-6.74,.2-2.23-.06-4.38-.27-6.46-.62-4.62-.74-8.92-2.12-12.85-4.04-2.39-1.17-4.64-2.54-6.76-4.09,4.01-1.83,9.41-4.37,13.77-6.69,8-4.25,7.75-9.25,14.5-13.75s14.33-7.75,14.92-4c.58,3.75-2.17,7.26-6.92,9.63s-12,4.62-9.25,7.12,12.75,1.75,18.25-2,8.56-3.5,19.53-10.75,10.72-7.45,15.47-13.1c1.71-2.05,4.41-3.87,7.16-5.37Z"/>
          <path class="cls-2" d="M137.94,54.96c.01,.57,.01,1.15,0,1.71-5.99,1.51-8.74,6.75-15.24,11.15s-7.75,8.35-13.25,10.35-10.25,4-11.5,0,7-7,9.25-11.26c2.25-4.27,9-7.74,15-11.84,3.85-2.63,10.69-6.25,15.1-8.5,.2,1.37,.34,2.76,.44,4.18,.11,1.38,.17,2.78,.2,4.21Z"/>
          <path class="cls-7" d="M137.06,45.07c-2.47,1-5.75,2.48-8.86,4.29-6.12,3.57-4.12,2.19-8.85,4.93-4.72,2.76-4.53,4.13-8.9,7.13s-7.87,4.87-5.37,1.03c2.5-3.85,10.87-6.9,13.62-10.53s7.5-4.13,9.88-5.44c2.37-1.32,0-3.31-1.5-3.93-1.5-.63,1.5-3.5,5-5,2.15-.92,2.46-2.01,2.38-2.71,.79,2.19,1.44,4.47,1.96,6.83,.25,1.11,.46,2.24,.64,3.4Z"/>
          <path class="cls-7" d="M132.77,79.84c-.1,.23-.21,.45-.32,.68-.82,1.64-1.7,3.22-2.66,4.75-4.19,6.64-9.81,12.12-16.42,16.21-8.75,5.43-19.21,8.43-30.38,8.43-2.31,.2-4.56,.27-6.74,.2-2.23-.06-4.38-.27-6.46-.62-4.62-.74-8.92-2.12-12.85-4.04,1.63-.99,3.88-2.03,6.09-1.95,4.17,.17,8.91,1.87,11.71,1.83,12.46-.16,8.46-4.16,11.96-5.66s11.64-7.5,14.07-7.5,4.1,2.5-.9,6-9.5,5.67-8.67,6.33c.83,.67,9.33-1.5,14.33-4.16,5-2.67,5.07-3.84,9.45-6.84,3.48-2.38,12.14-10.33,17.79-13.66Z"/>
          <path class="cls-7" d="M114.98,84.3s-8.03,3.88-6.91,5.62,4.81-.5,6.91-2.12c2.09-1.62,11.34-5.91,11.97-7.95s-2.19-4.17-11.97,4.45Z"/>
          <path class="cls-7" d="M73.82,81.55c-3.74,4.74-3.37,4.87-6.37,8.12s-3.51,3.12-9.82,6.62c-2.75,1.53-5.38,3.41-7.48,5.05-1.41-1.02-2.75-2.12-4.02-3.31,1.11-.67,2.53-1.75,2.82-3.04,.5-2.2-.42-3.82,1.23-6.94,1.64-3.13,1.77-3.13,2.27,0,.5,3.12-3.75,5.13-1.37,6.94,2.37,1.8,4.37-.79,8.12-2.74,3.75-1.96,5.62-2.21,7.75-5.96,2.13-3.74,4.84-6.87,7.79-8.87,2.96-2,2.84-.63-.92,4.13Z"/>
          <path class="cls-7" d="M56.94,43.13c-4.36,2.79-6.38,3.65-10.81,6.6-4.08,2.71-10.13,5.57-16.82,7.66,0-.22,0-.42,0-.64,0-4.17,.28-8.4,.9-12.54h0c2.34-1.45,5.51-3.12,6.12-2.04,1,1.75-3.5,5.02-2,6.26s8.36-.09,11.81-1.86c3.45-1.78,9.07-4.4,12.07-5.9s3.13-4.62,5-2.75c1.88,1.87-1.9,2.41-6.26,5.21Z"/>
          <path class="cls-7" d="M69.32,15.17c-4.24,2.38-8.37,4.56-10.87,7.84s-5.75,6.54-10.63,7.54c-4.87,1-4-1.38-9.62,2.74-2.25,1.65-4.51,2.63-6.43,3.21,.02-.1,.05-.2,.08-.3,1.86-6.94,4.84-13.37,9.19-18.58,2.11-2.52,4.52-4.78,7.16-6.76,.04,.44-.02,.96-.25,1.59-1,2.72-5.37,5.67-6.37,9.45-1,3.77,.87,5.52,2.37,5.52s5-1.63,7.13-3.25c2.12-1.62,5.74-4.38,9.62-6.88s5.12-3.91,8.62-5.2c3.5-1.3,4.26,.7,0,3.08Z"/>
          <path class="cls-7" d="M56.64,61.73s-1.56,2.38-3.81,4-7.12,2.62-8.31,4.12,1.19,1.88,2.5,1.44,3.94-2.12,6.19-2.69,4.31,1.62,5.81,1.19-.19-2.44,.5-4.88,6.56-6.38,6.38-8.5-3.94-1.31-9.25,5.31Z"/>
          <path class="cls-7" d="M104.62,13.71s-3.25,1.79-4.21,3.33c-.96,1.54-.04,3.5,1.17,4,1.21,.5,4.54-.71,6-3.04,1.46-2.33,6.25-3.66,5.58-5.91-.67-2.25-3.37-4.46-8.54,1.62Z"/>
          <path class="cls-7" d="M74.75,7.67s-1.48,.81-.54,1.62,3-.75,2.94-1.62-1.59-.81-2.39,0Z"/>
          <path class="cls-7" d="M80.51,5.3s-2.06,1.17-1.19,1.74,3.56-.56,3.88-1.37c.31-.81-.81-1.75-2.69-.38Z"/>
          <path class="cls-7" d="M66.7,37.34s-2.53,1.7-1.64,2.64,4.01-.45,4.26-1.32c.25-.87-1.16-2.66-2.62-1.32Z"/>
          <path class="cls-7" d="M74.75,48.11s-3.86,.62-4.73,2.19,2.25,1.31,4.44,.31,11.12-3.75,12.06-4.94c.94-1.19-1.5-.62-5,0-3.5,.62-4.27,1.77-6.77,2.44Z"/>
          <path class="cls-7" d="M86.01,55.92s-1,.81-4.06,3.75c-3.06,2.94-.5,2.38,2.03,1.06,2.53-1.31,4.91-3.96,7.84-5.36,2.94-1.39,8.19-3.53,5.69-3.96-2.5-.43-7.56,2.07-11.5,4.51Z"/>
          <path class="cls-7" d="M94.58,68.61s-2.19,1-5.81,2.5-6.81,2.31-8.5,3.38-1.75,2.75-.5,2.88,3.25-1.17,5.75-2.4,7.14-1.85,8.38-1.1c1.24,.75,3.68,.12,4.27-1.12,.59-1.25,.16-6.25-3.59-4.12Z"/>
          <path class="cls-7" d="M87.83,87.36s-1.81,1.25-5.19,2.56c-3.38,1.31-3.61,2.19-2.09,3.12s6.34,.06,9.09-.81,4.87-3.25,7.12-4.56,.81-6.25-8.94-.31Z"/>
          <path class="cls-7" d="M128.62,65.84s-1.75,1-5.75,3.83-8.5,5.81-8.67,7.7c-.17,1.89,4.58-.53,7.75-3.28,3.17-2.75,6.83-6,8.83-8.25s.58-2.42-2.17,0Z"/>
          <path class="cls-7" d="M116.45,39.5s-2.33,1.01-4.58,2.59c-2.25,1.58-1.33,2.42,1,1.83,2.33-.58,5.17-2.08,5.83-.17,.67,1.92,5.02-5.2,4.26-6.89-.76-1.69-2.93-.87-6.51,2.64Z"/>
          <path class="cls-1" d="M91.17,.52c-1.11,1.55-2.67,2.98-4.46,2.98-3.81,0-2.34-1.83-6.74-1.96-4.39-.13-7.1,1.71-11.1,4.71s-6.42,4.59-9.67,6.84-6.83,3.83-6.42,2c.42-1.84,7.34-7.25,9.92-9.2,1.48-1.11,3.87-2.89,5.64-4.2C72.75,.64,77.33,.08,81.93,.01c.35-.01,.71-.01,1.06-.01,2.79,0,5.52,.17,8.18,.52Z"/>
          <path class="cls-1" d="M74.74,43.79c-3.79,1.07-5.1,1.46-9.1,4.64s-6.82,8.36-13.38,9.49-11.56,1.57-11.94,3.88c-.37,2.31,5.38-3.69,8.07-1.82,2.69,1.88,2.84,3.63-1.89,4.63-4.74,1-8.74,1.36-11.11,3.21-1.12,.88-2.88,2.25-4.42,3.45-.75-3.15-1.25-6.4-1.49-9.73,1.61-.59,3.66-1.26,4.91-1.43,2.31-.32,4.37-2.5,7.06-3s5.69-2.38,7.37-4c1.69-1.63,6.57-4.3,9.26-5.75,2.68-1.44,7.12-1.77,9.37-2.39,2.25-.61,5.25-4.8,8.25-4.42,3,.37,2.84,2.18-.96,3.24Z"/>
          <path class="cls-1" d="M87.7,78.02s-4.93,1.82-8.8,4.82c-3.87,3-7.54,7.58-6.66,8.67,.88,1.08,.88-.75,4.21-3.17,3.33-2.42,8.25-3.83,11.25-5.92s3.67-5.47,0-4.4Z"/>
          <path class="cls-1" d="M118.7,60.3s-1.08,1.75-5.48,4.75c-4.4,3-10.9,7.38-10.15,9.25s2.84,1.25,6.8-.75,6.45-3.28,9.83-6.64c3.38-3.36,4.12-4.11,8-6.61s9.62-4.75,7-6.62-11.25,3.75-16,6.62Z"/>
          <path class="cls-4" d="M135.51,72.74c-.82,2.72-1.85,5.31-3.06,7.78-.82,1.64-1.7,3.22-2.66,4.75-3.44,5.45-7.85,10.13-12.98,13.89,0,0,0,.01-.02,.01-1.1,.81-2.25,1.58-3.42,2.31-8.75,5.43-19.21,8.43-30.38,8.43-2.31,.2-4.56,.27-6.74,.2-2.23-.06-4.38-.27-6.46-.62-7.43-1.19-14.02-4.03-19.61-8.13,0-.01-.02-.01-.03-.02-1.41-1.02-2.75-2.12-4.02-3.31-.31-.28-.61-.57-.91-.86-.79-.77-1.56-1.56-2.29-2.39-.57-.64-1.13-1.31-1.67-1.98h0c-.65-.81-1.27-1.65-1.87-2.5-2.28-3.24-4.2-6.8-5.73-10.58-.63-1.55-1.2-3.14-1.69-4.76-1.52-4.95-2.41-10.22-2.62-15.66-.02-.63-.04-1.27-.04-1.9h0c0-.23,0-.43,0-.65,0-4.17,.28-8.4,.9-12.54h0c.09-.68,.2-1.35,.32-2.02,.17-.92,.34-1.84,.54-2.74,.21-1,.44-1.98,.71-2.95,.02-.1,.05-.2,.08-.3,1.86-6.94,4.84-13.37,9.19-18.58,2.11-2.52,4.52-4.78,7.16-6.76h0c2.78-2.11,5.83-3.9,9.06-5.4-1.97,4.74-10.58,28.29,1.94,50.44,14,24.77,32.82,28.56,40.81,28.92,7.99,.35,29.7-1.79,35.5-12.08Z"/>
          <path class="cls-3" d="M116.79,99.17c-1.1,.81-2.25,1.58-3.42,2.31-8.75,5.43-19.21,8.43-30.38,8.43-2.31,.2-4.56,.27-6.74,.2-2.23-.06-4.38-.27-6.46-.62-7.43-1.19-14.02-4.03-19.61-8.13,0-.01-.02-.01-.03-.02-1.41-1.02-2.75-2.12-4.02-3.31-.31-.28-.61-.57-.91-.86-.79-.77-1.56-1.56-2.29-2.39-.57-.64-1.13-1.31-1.67-1.98h0c-.65-.81-1.27-1.65-1.87-2.5-2.28-3.24-4.2-6.8-5.73-10.58-.63-1.55-1.2-3.14-1.69-4.76-1.52-4.95-2.41-10.22-2.62-15.66-.02-.63-.04-1.27-.04-1.9h0c0-.23,0-.43,0-.65,0-4.17,.28-8.4,.9-12.54h0c.09-.68,.2-1.35,.32-2.02,.17-.92,.34-1.84,.54-2.74,.21-1,.44-1.98,.71-2.95,.02-.1,.05-.2,.08-.3,1.86-6.94,4.84-13.37,9.19-18.58,0,0-11.84,36.89,6.41,62.22,18.24,25.32,50.45,27.05,69.34,19.33Z"/>
          <path class="cls-1" d="M137.94,54.96c.01,.57,.01,1.15,0,1.71-.01,1.97-.13,3.9-.33,5.78-.11,1.01-.24,2-.4,2.98v.02c-.22,1.33-.48,2.65-.79,3.93,.88-8.78-2.57-30.06-17.23-48.88C104.51,1.67,72.24,.9,72.24,.9c3.18-.54,6.43-.84,9.69-.89,.35-.01,.71-.01,1.06-.01,2.79,0,5.52,.17,8.18,.52,1.93,.25,3.83,.59,5.69,1.02h.01c4.02,.92,7.83,2.26,11.42,3.96,.53,.25,1.06,.52,1.58,.79,1.44,.75,2.85,1.57,4.2,2.45,1.6,1.03,3.14,2.14,4.6,3.35,.39,.31,.78,.64,1.16,.97,1.48,1.29,2.9,2.67,4.22,4.14,4.32,4.75,7.78,10.43,10.15,16.91v.02c.08,.19,.15,.39,.22,.58,0,.03,.02,.07,.04,.1v.03c.79,2.19,1.44,4.47,1.96,6.83,.25,1.11,.46,2.24,.64,3.4,.06,.29,.11,.58,.15,.88,.03,.21,.06,.41,.09,.62,.2,1.37,.34,2.76,.44,4.18,.11,1.38,.17,2.78,.2,4.21Z"/>
          <path class="cls-5" d="M164.91,80.3c-1.37-2.32-4.26-5.02-8.27-7.89-2.02-1.42-4.31-2.91-6.86-4.45s-5.37-3.1-8.42-4.69c-1.18-.62-2.4-1.24-3.65-1.86-.03,.35-.06,.7-.1,1.04-.02,.17-.04,.34-.06,.5,1.11,.49,2.2,.98,3.25,1.47,6.2,2.87,11.49,5.66,15.54,8.42,4.08,2.71,6.95,5.39,8.29,7.63,.65,1.12,.89,2.09,.89,2.75,.03,.32-.06,.56-.07,.73-.02,.13-.03,.21-.04,.24-.01,.04-.05,.11-.1,.23-.08,.14-.15,.42-.34,.68-.35,.52-1.08,1.22-2.24,1.81-2.33,1.15-6.19,1.85-11.09,1.92-4.9,.13-10.86-.39-17.62-1.32-1.68-.23-3.41-.5-5.18-.79-5.39-.91-11.2-2.1-17.37-3.48-8.19-1.88-17.04-4.05-26.3-6.68-2.32-.65-4.67-1.35-7.03-2.05-2.38-.71-4.77-1.43-7.18-2.19-4.82-1.51-9.72-3.15-14.68-4.87-8.92-3.12-18.01-6.63-26.98-10.76-1-.45-2-.92-2.99-1.39-4.97-2.36-9.9-4.92-14.54-7.91-2.32-1.5-4.58-3.1-6.58-4.93-.97-.94-1.93-1.91-2.61-3-.68-1.08-1.11-2.27-.85-3.32,.07-.1,.24-.66,.38-.8,.18-.18,.25-.4,.52-.59,.42-.42,.97-.76,1.55-1.06,1.15-.6,2.49-.95,3.82-1.26,2.68-.56,5.47-.78,8.24-.87,5.57-.11,11.13,.31,16.62,.92,.04,0,.08,.01,.12,.01,.09-.3,.19-.59,.3-.88-.11-.01-.21-.03-.32-.04-5.5-.67-11.09-1.16-16.73-1.11-2.82,0-5.66,.14-8.5,.64-1.41,.29-2.84,.6-4.2,1.26-.68,.32-1.36,.7-1.96,1.25-.31,.22-.59,.64-.86,1-.16,.19-.2,.34-.28,.5l-.11,.24-.05,.12c-.04,.09,0,0-.09,.22-.07,.42-.2,.86-.18,1.28,.04,.41,.02,.86,.16,1.24,.19,.8,.54,1.5,.92,2.17,.76,1.33,1.77,2.4,2.78,3.45,2.07,2.04,4.35,3.78,6.69,5.39,4.7,3.2,9.64,5.9,14.62,8.41,1.4,.7,2.8,1.38,4.2,2.04,8.61,4.07,17.33,7.53,25.88,10.66,4.97,1.82,9.91,3.46,14.77,5,2.44,.76,4.85,1.51,7.22,2.2,2.4,.69,4.76,1.37,7.1,1.99,9.36,2.56,18.3,4.64,26.64,6.16,5.95,1.08,11.58,1.91,16.81,2.52,2.09,.24,4.12,.45,6.08,.63,3.42,.31,6.63,.52,9.61,.61,2.98,.07,5.71,.06,8.18-.05,4.93-.24,8.82-.96,11.23-2.18,1.19-.63,1.96-1.35,2.35-1.98,.21-.29,.26-.54,.34-.69,.07-.16,.11-.24,.11-.24v-.02s.02-.09,.05-.27c.01-.18,.11-.44,.09-.79,0-.71-.25-1.75-.92-2.92Z"/>
          <path class="cls-5" d="M142.2,83.1c-1.54,0-3.27-.06-5.17-.18C87.22,79.69,8.85,46.38,5.74,38.77c-.38-.92-.29-1.78,.24-2.5,3.31-4.4,24.07-2.34,26.45-2.09l-.3,1.02c-6.3-.66-22.84-1.67-25.35,1.67-.33,.43-.36,.92-.12,1.52,2.59,6.35,78.31,40.16,130.43,43.53,11.73,.76,14.02-1.03,14.34-2.17,.84-2.99-8.48-9.13-14.58-12.34l.21-1.09c1.69,.89,16.67,8.96,15.33,13.71-.58,2.06-3.93,3.08-10.19,3.08Z"/>
        </g>
      </g>
    </g>
  </g>
</svg>