<?xml version="1.0" encoding="UTF-8"?>
<svg xmlns="http://www.w3.org/2000/svg" viewBox="0 0 119.24 109.76">
  <defs>
    <style>
      .cls-1 {
        mix-blend-mode: screen;
      }

      .cls-1, .cls-2 {
        fill: #b9df47;
      }

      .cls-1, .cls-3 {
        opacity: .5;
      }

      .cls-4 {
        fill: #fdfaeb;
      }

      .cls-5 {
        fill: #b1d337;
      }

      .cls-6 {
        fill: #57aaaa;
      }

      .cls-7, .cls-8, .cls-3 {
        fill: #60b1b8;
      }

      .cls-9 {
        fill: #4b999b;
      }

      .cls-8 {
        opacity: .3;
      }

      .cls-8, .cls-3 {
        mix-blend-mode: multiply;
      }

      .cls-10 {
        isolation: isolate;
      }

      .cls-11 {
        fill: #b8f1f2;
        opacity: .6;
      }
    </style>
  </defs>
  <g class="cls-10">
    <g id="Layer_2" data-name="Layer 2">
      <g id="OBJECTS">
        <g>
          <path class="cls-7" d="M114.56,45.08c.02,1.13,.02,2.26,0,3.4,0,.75-.03,1.5-.04,2.25-.04,1.38-.06,2.76-.06,4.16,0,2.25-.13,4.47-.4,6.65-.71,5.88-.02,11.5-2.43,16.65,0,0-.66,1.57-.67,1.57-1.21,2.57-2.63,5-4.26,7.28-2.11,2.97-4.57,5.69-7.29,8.13-10.39,9.32-24.79,14.61-39.83,14.61-8.68,0-16.66-.52-24.19-3.58-3.86-1.57-7.12-3.51-9.92-5.75-.44-.35-.87-.71-1.28-1.08-6.78-5.88-10.73-13.5-14.37-21.32-3.01-6.43-4.79-13.56-5.07-21.06-.04-.7-.04-1.4-.04-2.1,0-8.97,2.16-17.44,5.98-24.93,1.49-2.91,2.67-5.65,4.18-8.25,.41-.7,.83-1.39,1.3-2.06,1.55-2.28,3.52-4.44,6.36-6.54,4.01-2.97,8.46-5.61,13.22-7.74C43.11,2.05,51.23,0,59.58,0c.7,0,1.4,0,2.09,.04,2.63,.09,5.18,.34,7.67,.76,11.48,1.92,21.5,7.19,29.83,14.69,.59,.54,1.17,1.08,1.75,1.65,.89,.85,1.76,1.74,2.61,2.65,1.55,1.68,3.04,3.45,4.44,5.29,5.38,7.03,6.48,13.49,6.6,19.99Z"/>
          <path class="cls-6" d="M99.4,95.14c-10.39,9.32-24.79,14.61-39.83,14.61-8.68,0-16.66-.52-24.19-3.58-3.86-1.57-7.12-3.51-9.92-5.75-.44-.35-.87-.71-1.28-1.08-6.78-5.88-10.73-13.5-14.37-21.32-3.01-6.43-4.79-13.56-5.07-21.06,.46-.7,4.18-6.27,6.98-4.94,2.98,1.42-.15,11.5,3.14,14.97,3.29,3.48,11.59,4.37,13.64,10.64,2.04,6.27,5.03,6.42,6.97,10.75,1.94,4.33,5.67,11.05,8.66,11.2,2.98,.14,6.12-7.02,7.46-11.2s.32-9.71,.9-15.68c.59-5.98,4.48-8.51,3.73-13.44-.75-4.93-3.14-9.7-9.7-10.08-6.58-.38-8.82-.82-7.32-3.81,1.49-2.99,3.14-5.15,7.32-7.43,4.18-2.28,4.97,6.08,9.8,8.84,4.83,2.76,6.17,6.34,8.26,15.01s-.74,13.84-1.64,20.28c-.9,6.44-.45,19.88,4.62,18.69,5.08-1.19,3.58-6.95,10.75-4.75,7.17,2.21,6.13,2.45,13.59-.65,2.7-1.12,5.31-1.06,7.49-.25Z"/>
          <path class="cls-6" d="M114.56,48.47c0,.75-.03,1.5-.04,2.25-.04,1.38-.06,2.76-.06,4.16,0,2.25-.13,4.47-.4,6.65-.71,5.88-.02,11.5-2.43,16.65,0,0-.66,1.57-.67,1.57-1.21,2.57-2.63,5-4.26,7.28-1.41,.11-2.63,.41-3.43,1.01-3.66,2.69-7.21,4.48-12.87,3.81-5.66-.67-11.93-2.35-14.94-1-3.01,1.34-6.74,4.69-9.31,.9-2.57-3.82,2.36-13.33,7.84-15.02,5.48-1.68,1.9,9.52,10.41,9.75,8.51,.22,4.26-2.02,9.66-3.36,5.4-1.34,2.33-1.34,5.94-4.42,3.62-3.06,2.11-5.44,2.77-10.03,.68-4.59,3.14-6.6,3.03-9.52s-1.68-5.15-.6-7.1c.8-1.43,6.43-2.89,9.36-3.57Z"/>
          <path class="cls-6" d="M57.19,26.27s-.45,4.31-3.36,6.1c-2.91,1.79-1.23,5.64,1.46,8.09,2.69,2.44,6.38,1.66,8.74,6.36,2.35,4.7,2.13,10.19,4.03,9.97,1.9-.22-1.12-4.03-.78-11.42,.34-7.39,0-12.99-.56-16.69-.56-3.7-6.16-7.39-9.52-2.41Z"/>
          <path class="cls-6" d="M79.82,20.05c-1.79,1.12-1.79-1.46-3.58-3.48-1.79-2.02-4.93-3.03-5.82,.82-.9,3.84-1.79,6.35-3.03,6.22-1.23-.13-.22-2.78,0-6.22,.23-3.43-3.92-4.29-7.74-3.61-3.83,.66-5.58,.66-6.48,0-.9-.68,.45-1.68,2.46-1.32,2.02,.38,5.72-1.6,4.01-3.88-1.7-2.28-4.8-4.89-10.06-4.1-5.26,.79-5.26,3.36-9.18,2.91-2.07-.23-3.61-1.16-4.67-2.03C43.11,2.05,51.23,0,59.58,0c.7,0,1.4,0,2.09,.04,2.63,.09,5.18,.34,7.67,.76,0,.85,.07,1.66,.29,2.21,.68,1.67,1.91,3.03,2.76,6.37,.85,3.33,1.84,2.71,5.15,5.73,3.32,3.02,4.08,3.8,2.28,4.93Z"/>
          <path class="cls-9" d="M8.04,35.99s.25,2.17,.92,2.99c.67,.82,2.02,2.61,4.18,4.11,2.17,1.49,3.14,1.46,5.6,3.49s3.96,3.08,5.82,3.75c1.87,.67,2.84,.67,3.66,1.19,.82,.52,1.32-.16,2.31,.52,1,.68,.45,.98,.6,1.65,.15,.67-2.09,2.31-2.54,3.66-.45,1.34-3.28,2.91-3.58,4.11-.3,1.19-.75,2.91-.45,3.51,.3,.6,1.79,4.33,2.91,5.9,1.12,1.57,1.64,2.84,2.84,4.03,1.19,1.19,2.39,2.61,3.88,3.58s2.76,1.22,3.36,2.44c.6,1.22,1.05,2.56,1.05,4.35s.25,3.26,1.21,3.94c.96,.69,2.98,.54,2.98,.54,0,0,.37,2.17,.37,3.06s.19,2.27,1.24,2.58c0,0,.4-11.77,.4-12.06s-6.05-16.46-6.5-17.64c-.45-1.18-5-14.24-5-14.24,0,0-10.3-12.54-11.27-13.07-.97-.52-13.99-2.39-13.99-2.39Z"/>
          <path class="cls-9" d="M61.86,17.39s.48,.6,0,1.46-3.84,2.8-5.11,3.39c-1.27,.6-2.34,1.72-3.21,2.02-.87,.3-.98,.67-.97,1.27s-1.73,4.79-2.42,5.26c-.69,.47-1.16,1.46-2.73,2.14-1.57,.67-3.29,1.12-4.33,1.72-1.05,.6-1.87,1.94-2.99,3.66-1.12,1.72-3.29,6.59-4.11,7.69-.82,1.1-1.4,2.48-1.19,3.89,.22,1.41-3.82-4.94-3.82-4.94,0,0-.22-6.05,.82-7.32,1.05-1.27,8.66-9.26,9.11-9.93,.45-.67,3.81-3.29,4.78-3.88s5.09-3.21,5.09-3.21l11.07-3.21Z"/>
          <path class="cls-2" d="M55.03,16.13c-2.09,.6-5.97-1.64-8.06-.6-2.08,1.04-8.9-3.19-8.98-3.24-3.87-2.46-7.57-4.27-7.57-4.27h-3.8s-4.37,3.07-7.17,5.76-3.25,2.91-5.6,7.62c-2.35,4.7-5.82,9.74-6.05,11.31-.22,1.57,.24,3.28,.24,3.28,0,0,3.23,4.78,7.71,7.69,4.48,2.91,13.64,8.06,14.66,7.62,0,0,0,0,0,0,.69-.31,1.49-.18,1.93,.44,.1,.13,.19,.27,.29,.42-.61,.24-1.45,.68-2.26,1.48-1.49,1.48-.15,1.58-1.79,2.8-1.64,1.22-2.54,1.87-3.43,4.31-.9,2.44,2.02,6.38,2.65,7.73,0,0,0,0,0,0,1.32,3.1,3.48,6.2,6,8.14,1.7,1.31,3.36,2.93,4.92,4.56,.43,1.18,.76,2.27,.76,2.91,0,1.94-.6,3.92,0,4.8,.6,.88,3.13,2.09,4.18,2.3,1.05,.22,0,4.4,1.19,4.85s.66-3.72,1.75-4.85c.65-.67,.97-3.34,1.12-5.38,.08-.74,.12-1.57,.13-2.44,0-.01,0-.04,0-.04h0c.03-1.77-.05-3.7-.17-5.37-.3-4.33,.15-7.77,2.24-10.45,2.09-2.69,3.73-8.81,1.64-11.65-2.09-2.84-6.12-4.03-8.36-3.14-2.24,.9-6.42,.75-7.17,0-1.46-3.29-1.23-7.08,.59-10.19,.41-.7,.83-1.43,1.27-2.21,.96-1.69,2.14-3.57,3.32-5.52h0c.67-1.1,3.03-2.39,5.72-2.69s5.82-2.69,5.6-6.57c-.23-3.88,6.8-4.93,8.89-7.32,2.09-2.39-4.33-2.69-6.42-2.09Z"/>
          <path class="cls-9" d="M75.46,8.02s.15,1.39,1.39,3.18c1.23,1.79,2.41,2.74,3.92,4.09,1.51,1.34,4.31,2.66,5.32,3.57s2.69,1.14,3.75,.8c1.06-.34,2.24-1.95,3.13-2.26s1.13-.31,2.46,0c1.33,.31,1.51,1.42,2.02,2.09s-.39,1.23,1.46,1.85c1.85,.62,1.85,.06,3.3,1.01,1.46,.95,2.43,.92,2.92,1.25,.49,.33-1.91-5.12-1.91-5.12,0,0-4.48-3.7-6.22-4.26-1.74-.56-6.05-2.22-7.67-2.43-1.62-.21-8.96-3.12-8.96-3.12"/>
          <path class="cls-2" d="M74.94,2.04s-.5,5.39,1.29,7.35c1.79,1.96,3.29,2.56,4.78,3.76,1.49,1.19,5.08,5.38,7.91,5.38s2.99-2.54,5.23-2.24c2.24,.3,2.39,1.19,3.73,2.99,1.34,1.79,3.43,1.64,5.53,3.14s5.08,3.4,5.38,3.82c.29,.42,.75-2.03,.75-2.03,0,0-4.03-6.64-8.36-10.04-4.33-3.4-8.21-6.83-14.19-9.67-4.03-1.91-8.13-3.28-10.37-3.97-1.28-.39-2.69-.27-3.84,.42-.38,.23-.56,.43-.21,.51,1,.24,2.37,.59,2.37,.59Z"/>
          <path class="cls-9" d="M77.58,22.7s6.72,2.46,9.63,2.02c2.91-.45,5.82,.79,8.29,2.75,2.46,1.96,4.26,3.3,6.05,2.41,1.79-.9,5.15-2.79,6.05,.28,.9,3.08,3.14,8.53,4.18,8.53s1.95-.49,2.15,.76c.21,1.25,1.88,1.78,1.58,3.12-.3,1.34-.95,3.71-.95,3.71,0,0-1.89,.47-5.03,1.07-3.14,.6-4.18,1.79-7.62,3.88s.07,3.73,.52,7.77c.45,4.03-1.79,8.51-3.14,12.77-1.34,4.26-4.15,8.06-8.35,9.86-4.2,1.79-8.38-1.72-8.15-3.06,.22-1.34,1.57-4.26,2.69-8.06,1.12-3.81,.37-20.23-.75-22.47-1.12-2.24-7.24,4.77-9.71,5.22-2.46,.45-4.63-7.69-4.63-13.51s2.15-5.94,1.97-8.29c-.18-2.35-2.64-3.92-.74-6.27,1.9-2.35-.31-3.7,.74-4.59,1.05-.9,1.95-.9,5.2,2.13Z"/>
          <path class="cls-2" d="M77.58,21.5s6.72,2.46,9.63,2.02c2.91-.45,5.82,.79,8.29,2.75,2.46,1.96,4.26,3.3,6.05,2.41,1.79-.9,5.15-2.79,6.05,.28,.9,3.08,3.14,8.53,4.18,8.53s1.95-.49,2.15,.76c.21,1.25,1.88,1.78,1.58,3.12-.3,1.34-.95,3.71-.95,3.71,0,0-1.89,.47-5.03,1.07-3.14,.6-4.18,1.79-7.62,3.88s.07,3.73,.52,7.76c.45,4.03-1.79,8.51-3.14,12.77-1.34,4.26-4.15,8.06-8.35,9.86-4.2,1.79-8.38-1.72-8.15-3.06,.22-1.34,1.57-4.26,2.69-8.06,1.12-3.81,.37-20.23-.75-22.47-1.12-2.24-7.24,4.77-9.71,5.22-2.46,.45-4.63-7.68-4.63-13.51s2.15-5.94,1.97-8.29c-.18-2.35-2.64-3.92-.74-6.27,1.9-2.35-.31-3.7,.74-4.59,1.05-.9,1.95-.9,5.2,2.13Z"/>
          <path class="cls-9" d="M8.04,40.45s.66,.43,.83,1.71-.32,2.59-.52,4.4c-.2,1.81-.88,4.22-1.49,5.23-.62,1.01-1.18,1.57-1.68,1.32s.56-3.78,.56-3.78"/>
          <path class="cls-2" d="M6.48,40.96s-2.82,3.24-2.71,5.55,.91,3.37,.93,5.37c.01,1.99,1.14,1.65,1.79-1.59,.65-3.25,1.54-5.38,1.77-6.5,.22-1.12,.18-5.7-1.77-2.83Z"/>
          <path class="cls-9" d="M45.32,9.41s.82,1.53,1.57,2.17c.75,.63,1.64,1.16,2.43,.75,.78-.41,.56-1.46,.9-1.94,.34-.49,.71-.6,2.39-.37,1.68,.22,3.71,.02,3.62-.6-.08-.62-4.48-.82-4.48-.82"/>
          <path class="cls-2" d="M45.32,9.41s2.09,2.39,3.58,2.39,.3-2.09,1.64-2.39c1.34-.3,5.08,.9,5.67,0,.6-.9-1.79-1.34-4.33-2.24-2.54-.9-7.23,1.56-6.57,2.24Z"/>
          <path class="cls-5" d="M10.49,31.69s.9,3.92,2.35,5.49c1.46,1.57,6.61,3.7,9.18,4.93s9.07,4.82,10.08,5.82c1.01,1.01,1.12-3.25,1.57-5.71s2.58-6.5,4.82-9.41c2.24-2.91,8.62-2.69,9.41-5.82,.78-3.14,1.79-6.49,3.7-6.94,1.9-.45,1.01-.79-4.59-1.79-5.6-1.01-7.17-1.34-13.55-4.14-6.38-2.8-6.61-4.59-9.74-.11-3.14,4.48-6.83,9.07-8.96,10.53-2.13,1.46-4.81,5.22-4.26,7.17Z"/>
          <path class="cls-5" d="M33.56,54.88s-3.14,6.72-4.37,6.72-.67,3.48,.45,4.09c1.12,.61,1.46,3.64,3.92,5.43,2.46,1.79,4.37,2.91,6.05,5.15,1.68,2.24,2.69,.92,2.69,5.84s1.01,6.59,1.57,6.26-.22-4.37,0-8.85c.22-4.48-1.57-8.05-.67-11.02s4-6.33,.88-9.02c-3.12-2.69-5.02-1.68-7.04-3.25-2.02-1.57-2.99-2.34-3.47-1.34Z"/>
          <path class="cls-5" d="M74.89,28s1.26,2.91,.57,4.26c-.69,1.34-2.37,3.02-2.37,5.26s.33,9.52,1.29,10.08c.95,.56,2.41-.67,3.53-2.46,1.12-1.79,3.58-2.58,5.26-1.9,1.68,.67,4.03-.11,4.48,2.13s1.57,7.62,1.79,10.19-1.79,9.3-1.23,11.76-1.9,4.93-1.46,6.5c.45,1.57,4.39,1.2,5.82-2.39,1.44-3.58,3.58-8.25,3.36-12.51-.22-4.26-3.25-11.31-2.24-13.44,1.01-2.13,6.27-1.34,6.16-4.26s1.57-2.24-4.26-5.94c-5.82-3.7-4.93-3.14-9.13-6.38-4.2-3.25-6.78-3.25-9.35-4.7-2.58-1.46-3.47,.67-2.24,3.81Z"/>
          <path class="cls-5" d="M98.29,34.38s1.12,2.46,2.46,2.69c1.34,.22,8.96,1.9,8.29,0-.67-1.9-3.55-4.14-3.85-5.82-.3-1.68-9.37,.45-6.9,3.14Z"/>
          <path class="cls-5" d="M77.69,3.47s-.9,2.82,1.57,4.55c2.46,1.72,3.14,3.19,5.04,5.26,1.9,2.07,2.35,3.7,3.36,4.12,1.01,.41,3.58,.35,5.32-1.58s4.25-.36,4.9,.87c.65,1.23,1.77,2.8,3.67,3.36,1.9,.56,3.2-1.35-1.54-4.82-4.73-3.47-4.26-3.1-10.04-6.65-5.78-3.55-12.72-6.79-12.28-5.11Z"/>
          <path class="cls-5" d="M97.87,59.92s-.02,4.93-1.26,7.73c-1.23,2.8-1.57,6.61-3.64,7.5-2.07,.9-5.77,1.12-5.32,2.35,.45,1.23,2.91,1.46,4.48,.9,1.57-.56,4.26-2.13,4.48-4.93s1.68-4.92,2.58-7.78c.9-2.86,1.96-7.67,.81-9.69-1.15-2.02-1.95,.94-2.13,3.92Z"/>
          <path class="cls-5" d="M100.01,43.9s-2.94,.9-3.28,2.41c-.34,1.51,.73,4.37,1.51,4.37s2.18-1.57,3.75-2.8c1.57-1.23,2.97-2.41,5.6-2.74s5.43-1.06,5.38-2.3c-.06-1.23,.02-2.58-3.43-2.97-3.45-.39-4.67-2.18-6.05-.67-1.38,1.51-1.17,3.57-3.47,4.7Z"/>
          <path class="cls-3" d="M77.45,88.62c-8.68,0-16.66-.52-24.19-3.58-3.86-1.57-7.12-3.51-9.92-5.75-.44-.35-.87-.71-1.28-1.08-6.78-5.88-10.73-13.5-14.37-21.32-3.01-6.43-4.79-13.56-5.07-21.06-.04-.7-.04-1.4-.04-2.1,0-.77,.04-1.53,.07-2.29-.04-.19-.07-.42-.07-.71,0-1.99-.82-3.05-.92-5.37-.12-2.31,2.71-5.56,2.71-5.56l.04-.04c.44-1.67,.94-3.32,1.52-4.92v-.02s-.46-1.71-.23-3.28c.09-.65,.77-1.94,1.68-3.55h-.75s-4.36,3.07-7.17,5.76c-2.8,2.69-3.24,2.9-5.59,7.62-2.36,4.69-5.82,9.74-6.06,11.31-.22,1.57,.24,3.28,.24,3.28v.02c-.58,1.6-1.09,3.25-1.52,4.92-.02,.02-.03,.03-.04,.04,0,0-2.82,3.23-2.71,5.55,.12,2.32,.92,3.38,.93,5.37,0,.29,.03,.52,.07,.71-.04,.76-.07,1.52-.07,2.29,0,.7,0,1.4,.04,2.1,.28,7.5,2.06,14.62,5.07,21.06,3.64,7.81,7.59,15.44,14.37,21.32,.41,.37,.84,.73,1.28,1.08,2.8,2.24,6.06,4.18,9.92,5.75,7.54,3.06,15.51,3.58,24.19,3.58,15.03,0,29.43-5.3,39.83-14.61,2.72-2.44,5.18-5.16,7.29-8.13,1.62-2.28,3.05-4.7,4.26-7.28,0,0,.33-.77,.53-1.23-9.65,6.5-21.62,10.11-34.03,10.11Z"/>
          <path class="cls-8" d="M77.45,88.62c-8.68,0-16.66-.52-24.19-3.58-3.86-1.57-7.12-3.51-9.92-5.75-.44-.35-.87-.71-1.28-1.08-6.78-5.88-10.73-13.5-14.37-21.32-3.01-6.43-4.79-13.56-5.07-21.06-.04-.7-.04-1.4-.04-2.1,0-.77,.04-1.53,.07-2.29-.04-.19-.07-.42-.07-.71,0-1.99-.82-3.05-.92-5.37-.12-2.31,2.71-5.56,2.71-5.56l.04-.04c.44-1.67,.94-3.32,1.52-4.92v-.02s-.46-1.71-.23-3.28c.09-.65,.77-1.94,1.68-3.55h-.75s-4.36,3.07-7.17,5.76c-2.8,2.69-3.24,2.9-5.59,7.62-2.36,4.69-5.82,9.74-6.06,11.31-.22,1.57,.24,3.28,.24,3.28v.02c-.58,1.6-1.09,3.25-1.52,4.92-.02,.02-.03,.03-.04,.04,0,0-2.82,3.23-2.71,5.55,.12,2.32,.92,3.38,.93,5.37,0,.29,.03,.52,.07,.71-.04,.76-.07,1.52-.07,2.29,0,.7,0,1.4,.04,2.1,.28,7.5,2.06,14.62,5.07,21.06,3.64,7.81,7.59,15.44,14.37,21.32,.41,.37,.84,.73,1.28,1.08,2.8,2.24,6.06,4.18,9.92,5.75,7.54,3.06,15.51,3.58,24.19,3.58,15.03,0,29.43-5.3,39.83-14.61,2.72-2.44,5.18-5.16,7.29-8.13,1.62-2.28,3.05-4.7,4.26-7.28,0,0,.33-.77,.53-1.23-9.65,6.5-21.62,10.11-34.03,10.11Z"/>
          <path class="cls-8" d="M68.09,100.75c-8.68,0-16.66-.52-24.19-3.58-3.86-1.57-7.12-3.51-9.92-5.75-.44-.35-.87-.71-1.28-1.08-6.78-5.88-10.73-13.5-14.37-21.32-3.01-6.43-4.79-13.56-5.07-21.06-.04-.7-.04-1.4-.04-2.1,0-.77,.04-1.53,.07-2.29-.04-.19-.07-.42-.07-.71,0-1.99-.82-3.05-.93-5.37-.11-2.31,2.71-5.55,2.71-5.55,0-.02,.02-.03,.04-.04,.43-1.67,.94-3.32,1.52-4.92v-.02s-.46-1.71-.24-3.28c.23-1.57,3.7-6.61,6.06-11.31,.38-.75,.7-1.39,.99-1.94-1.29,1-2.74,2.2-3.92,3.33-2.8,2.69-3.24,2.9-5.59,7.62-2.36,4.69-5.82,9.74-6.06,11.31-.22,1.57,.24,3.28,.24,3.28v.02c-.58,1.6-1.09,3.25-1.52,4.92-.02,.02-.03,.03-.04,.04,0,0-2.82,3.23-2.71,5.55,.12,2.32,.92,3.38,.93,5.37,0,.29,.03,.52,.07,.71-.04,.76-.07,1.52-.07,2.29,0,.7,0,1.4,.04,2.1,.28,7.5,2.06,14.62,5.07,21.06,3.64,7.81,7.59,15.44,14.37,21.32,.41,.37,.84,.73,1.28,1.08,2.8,2.24,6.06,4.18,9.92,5.75,7.54,3.06,15.51,3.58,24.19,3.58,15.03,0,29.43-5.3,39.83-14.61,2.59-2.31,4.93-4.88,6.96-7.68-10.25,8.49-23.98,13.29-38.28,13.29Z"/>
          <path class="cls-1" d="M115.5,41.37c.3-1.34-1.37-1.87-1.58-3.12-.72-3.91-2.2-7.88-5.15-12.04,0,0,0,0,.02,0,.29,.42,.74-2.02,.74-2.02,0,0-4.03-6.64-8.37-10.04-4.33-3.4-8.21-6.83-14.18-9.67-4.03-1.92-8.13-3.28-10.38-3.97-1.28-.39-2.68-.27-3.83,.42-.38,.22-.56,.43-.21,.51,.23,.05,.47,.12,.72,.17-1.3-.31-2.62-.58-3.95-.81-2.49-.42-5.04-.67-7.67-.76-.69-.04-1.39-.04-2.09-.04-8.35,0-16.47,2.05-23.85,5.36-1.82,.82-3.57,1.72-5.29,2.67,0,0-.03,0-.03,0h-3.8s-4.36,3.07-7.17,5.76c-1.68,1.61-2.51,2.34-3.42,3.67,.39-.39,.85-.82,1.4-1.33,2.8-2.69,7.17-5.76,7.17-5.76h3.79s.02,0,.03,.02c1.72-.95,3.47-1.86,5.29-2.68,7.38-3.31,15.5-5.36,23.85-5.36,.7,0,1.4,0,2.09,.04,2.63,.09,5.18,.34,7.67,.76,1.33,.22,1.52,.6,2.82,.92-.24-.06,.78-.44,.55-.49-.35-.08-.3-.07,.07-.3,1.16-.69,2.55-.82,3.84-.42,2.24,.69,6.34,2.06,10.37,3.97,5.98,2.84,9.86,6.27,14.18,9.68,4.34,3.4,8.37,10.03,8.37,10.03,0,0-.46,2.45-.74,2.02-.55-.44,0,0-.02,0,2.95,4.17,4.43,8.14,5.15,12.04,.21,1.25,1.88,1.77,1.58,3.12-.02,.11-.04,.23-.08,.35,.11,.25,.15,.53,.08,.84-.29,1.33-.92,3.65-.94,3.71,0,.73,0,1.47,0,2.2,0,.75-.03,1.5-.04,2.25-.04,1.38-.06,2.76-.06,4.16,0,2.25-.13,4.47-.4,6.65-.71,5.88-.02,11.5-2.43,16.65,0,0-.66,1.57-.67,1.57-1.21,2.57-2.63,5-4.26,7.28-.6,.84-1.24,1.67-1.89,2.47,1.42-1.52,2.72-3.13,3.92-4.81,1.62-2.28,3.05-4.7,4.26-7.28,0,0,.67-1.57,.67-1.57,2.41-5.15,1.72-10.77,2.43-16.65,.27-2.18,.4-4.4,.4-6.65,0-1.4,.03-2.78,.06-4.16,.02-.75,.04-1.5,.04-2.25,0-.74,0-1.47,0-2.2,.02-.06,.65-2.38,.94-3.71,.07-.32,.03-.59-.08-.84,.03-.13,.06-.24,.08-.35ZM74.94,2.04c-.1-.03-.19-.04-.29-.08,.18,.04,.29,.07,.29,.07h0Z"/>
          <g>
            <g>
              <path class="cls-4" d="M48.64,66.91h0c-.04,.15-.11,.29-.18,.42-2.31,4.32-6.25,5.07-10.74,4.58-.04,2.02-1.64,4.2-3.66,4.86-1.6,.52-4.81-.23-6.2-1.13,.16,4.11-4.1,6.98-7.77,7.49-1.62,.23-4.39,.35-5.91-.24-1.11-.44-3.75-2.9-3.7-4.2-1.53,1.03-4.61,1.19-6-.17-1.4-1.36-1.05-4.76-.26-6.26-1.76,.02-3.14-1.57-3.72-3.04-.73-1.85-.64-3.95,.19-5.72H.68c.62-1.36,1.67-2.53,3.07-3.25,3.08-1.58,5.81-.5,8.19,1.58,3.47-4.1,9.08-1.38,10.19,1.2,1.51-2.54,4.16-4.18,7.68-4,3.35,.16,5.99,2.63,7.22,5.88,1.63-1.59,3.13-3.86,5.63-3.98,1.77-.08,3.93,.03,5.24,1.34,1.11,1.13,1.32,3.16,.74,4.64Z"/>
              <path class="cls-11" d="M48.64,66.92c-.04,.14-.11,.28-.18,.41-2.31,4.32-6.25,5.07-10.74,4.58-.04,2.02-1.64,4.2-3.66,4.86-1.6,.52-4.81-.23-6.2-1.13,.16,4.11-4.1,6.98-7.77,7.49-1.62,.23-4.39,.35-5.91-.24-1.11-.44-3.75-2.9-3.7-4.2-1.53,1.03-4.61,1.19-6-.17-1.4-1.36-1.05-4.76-.26-6.26-1.76,.02-3.14-1.57-3.72-3.04-.73-1.85-.64-3.95,.19-5.72-.02,.28-.29,5.84,5.66,6.16,0,0-.66,3.7,2.55,3.14,0,0,1.59,5.71,5.68,2.86,0,0,8.51,4.43,11.08-3.31,0,0,3.03,2.63,4.82,.62,1.64-1.85,1.41-2.94,1.35-3.11,.15,.22,1.44,2.1,2.97,1.12,1.61-1.04,1.45-2.54,1.45-2.54,0,0,7.98,4.24,12.38-1.51Z"/>
            </g>
            <g>
              <path class="cls-4" d="M115.58,42.68c.52,2.33,.77,4.85-1.5,6.25-1.72,1.08-5.38,1.08-6.62-1.28,.95,2.51-1.22,5.02-3.48,5.73-2.62,.83-5.74,0-7.13-2.4-.14,2.39-1.27,4.39-3.93,4.85-2.63,.44-4.79-.9-5.2-3.53-1.62,1.25-3.46,2.63-5.68,2.02-2.04-.56-2.92-2.64-3.13-4.57-.03-.27-.04-.55-.04-.84-.04-1.5,.22-3.25,1.08-4.34,.72-.91,1.92-1.77,3.08-1.79,.77,0,1.54,.59,1.6,1.57,1.35-2.2,3.11-4.5,5.88-4.93,2.15-.34,6.18,.26,6.98,2.53-.99-3.12,1.42-7.9,5-8.24,3.8-.35,8.94,.45,9.24,5.21,.3-1.23,.71-2.93,2.2-3.31,.86-.22,2.33-.13,3.4,.24,.46,.15,.84,.36,1.08,.61,1.85,2.02,.52,6.96-2.81,6.23Z"/>
              <path class="cls-11" d="M115.58,42.68c.52,2.33,.77,4.85-1.5,6.25-1.72,1.08-5.38,1.08-6.62-1.28,.95,2.51-1.22,5.02-3.48,5.73-2.62,.83-5.74,0-7.13-2.4-.14,2.39-1.27,4.39-3.93,4.85-2.63,.44-4.79-.9-5.2-3.53-1.62,1.25-3.46,2.63-5.68,2.02-2.04-.56-2.92-2.64-3.13-4.57-.03-.27-.04-.55-.04-.84,.16,.13,4.35,3.6,7.14-.44,0,0,1.87,4.53,4.96,.43,0,0,1.44,3.21,3.85,2.61,2.61-.65,2.17-4.48,2.17-4.48,0,0,1.47,3.2,4.26,2.37,2.93-.86,2.02-3.94,2.02-3.94,0,0,1.6,2.17,5.03,.2,2.63-1.51,1.35-5.11,1.25-5.33,.16,.25,2.48,2.89,4.46,1.94,2.74-1.32,1.54-4.17,1.54-4.17,0,0,2.55,.06,1.83-2.12-.01-.05-.04-.09-.05-.13,.46,.15,.84,.36,1.08,.61,1.85,2.02,.52,6.96-2.81,6.23Z"/>
            </g>
            <g>
              <path class="cls-4" d="M84.76,67.49c-.62,.47-2.77,1.84-3.39,.8,.04,1.88-.64,3.53-2.57,4.14-1.83,.57-4.34,.66-5.05-1.53-.6,.92-1.68,1.71-2.86,1.68-1.1-.03-2.85-.74-3.27-1.83-.27-.72-.19-1.68,.15-2.59h0c.57-1.59,1.89-3.02,3.37-2.82l.22-.15c-1.19-1.89,2.14-3.84,2.7-2.11-.56-1.91,1.01-2.64,2.72-2.6,.74,.02,1.64,.3,2.35,.55,.94,.31,1.23,1.18,2.02,1.61,.86-.86,1.63-1.4,2.8-1.28,.13,0,.25,.03,.38,.05,1.19,.24,2.08,1.54,2.19,2.74,.13,1.37-.72,2.54-1.76,3.34Z"/>
              <path class="cls-11" d="M84.76,67.49c-.62,.47-2.77,1.84-3.39,.8,.04,1.88-.64,3.53-2.57,4.14-1.83,.57-4.34,.66-5.05-1.53-.6,.92-1.68,1.71-2.86,1.68-1.1-.03-2.85-.74-3.27-1.83-.27-.72-.19-1.68,.15-2.59h0s-.17,1.04,.8,1.58c.97,.55,2.17-.9,2.17-.9,0,.12,.03,1.51,1.21,1.56,1.23,.05,1.33-1.9,1.33-1.9,0,0,.93,1.33,2.26,.95,1.33-.38,1.03-2.2,1.03-2.2,0,0,.9,1.05,3.07,.43,2.19-.62,1.96-3.17,1.96-3.17,0,0,.86,1.33,2.05,.67,1.2-.65,1.77-2.82,.3-3.81,.13,0,.25,.03,.38,.05,1.19,.24,2.08,1.54,2.19,2.74,.13,1.37-.72,2.54-1.76,3.34Z"/>
            </g>
            <g>
              <path class="cls-4" d="M48.01,55.34c-1.95,1.12-5.38,1.26-6.87-1.2-.21-.36-.33-.75-.36-1.15-.17-2.29,2.37-4.9,2.37-4.9,1.18-.92,2.63-1.03,3.86-.79,1.16,.22,2.13,.73,2.56,1.17,.9,.91,.39,5.74-1.57,6.86Z"/>
              <path class="cls-11" d="M48.01,55.34c-1.95,1.12-5.38,1.26-6.87-1.2-.21-.36-.33-.75-.36-1.15h0s2.4,1.61,3.41-.68c0,0,5.97,.06,2.81-5.01,1.16,.22,2.13,.73,2.56,1.17,.9,.91,.39,5.74-1.57,6.86Z"/>
            </g>
            <g>
              <path class="cls-4" d="M117.11,59c-1.17,.67-3.22,.76-4.12-.72-.13-.21-.2-.45-.21-.69-.1-1.37,1.42-2.94,1.42-2.94,.71-.55,1.57-.62,2.31-.47,.69,.13,1.28,.44,1.53,.7,.54,.55,.23,3.44-.94,4.11Z"/>
              <path class="cls-11" d="M117.11,59c-1.17,.67-3.22,.76-4.12-.72-.13-.21-.2-.45-.21-.69h0s1.44,.97,2.04-.41c0,0,3.57,.04,1.69-3,.69,.13,1.28,.44,1.53,.7,.54,.55,.23,3.44-.94,4.11Z"/>
            </g>
            <g>
              <path class="cls-4" d="M9.61,87.85c-1.17,.67-3.22,.76-4.12-.72-.13-.21-.2-.45-.21-.69-.1-1.37,1.42-2.94,1.42-2.94,.71-.55,1.57-.62,2.31-.47,.69,.13,1.28,.44,1.53,.7,.54,.55,.23,3.44-.94,4.11Z"/>
              <path class="cls-11" d="M9.61,87.85c-1.17,.67-3.22,.76-4.12-.72-.13-.21-.2-.45-.21-.69h0s1.44,.97,2.04-.41c0,0,3.57,.04,1.69-3,.69,.13,1.28,.44,1.53,.7,.54,.55,.23,3.44-.94,4.11Z"/>
            </g>
          </g>
        </g>
      </g>
    </g>
  </g>
</svg>