<?xml version="1.0" encoding="UTF-8"?>
<svg xmlns="http://www.w3.org/2000/svg" viewBox="0 0 108.65 110.14">
  <defs>
    <style>
      .cls-1 {
        mix-blend-mode: screen;
        opacity: .59;
      }

      .cls-1, .cls-2 {
        fill: #fff58d;
      }

      .cls-3 {
        fill: #fc7e00;
      }

      .cls-4, .cls-5 {
        fill: #fdcb26;
      }

      .cls-6 {
        fill: #ff8a0b;
      }

      .cls-7 {
        fill: #ff5b00;
      }

      .cls-5 {
        mix-blend-mode: multiply;
      }

      .cls-2 {
        mix-blend-mode: soft-light;
      }

      .cls-8 {
        isolation: isolate;
      }
    </style>
  </defs>
  <g class="cls-8">
    <g id="Layer_2" data-name="Layer 2">
      <g id="OBJECTS">
        <g>
          <path class="cls-4" d="M108.65,54.96c.06,3.63-.19,7.12-.73,10.47v.02c-.88,5.43-2.5,10.47-4.76,15.07-.82,1.64-1.7,3.23-2.66,4.75-4.19,6.64-9.81,12.12-16.42,16.22-8.74,5.43-19.21,8.42-30.37,8.42-2.31,.21-4.56,.28-6.75,.21-2.22-.06-4.37-.27-6.46-.62-10.95-1.76-20.06-7.1-26.85-14.71-.57-.65-1.13-1.31-1.68-1.98h0c-.65-.82-1.27-1.65-1.86-2.5C3.58,81.03,0,69.29,0,56.75c0-4.85,.39-9.78,1.23-14.56,.16-.92,.34-1.84,.54-2.74,.23-1.09,.49-2.18,.79-3.24,1.86-6.94,4.84-13.38,9.19-18.58,6.02-7.19,14.46-12.24,23.86-15.03,5.78-1.72,11.93-2.59,18.09-2.59,9.17,0,17.76,1.91,25.29,5.5,2.01,.96,3.94,2.04,5.79,3.24,2.02,1.3,3.94,2.74,5.75,4.32,1.49,1.29,2.9,2.67,4.23,4.14,4.44,4.9,7.98,10.78,10.37,17.51,1.26,3.52,2.2,7.28,2.79,11.24,.24,1.57,.42,3.17,.54,4.8,.11,1.38,.17,2.78,.2,4.2Z"/>
          <path class="cls-6" d="M78.99,5.5c-.39,1.58-1.37,2.98-3.19,4.06-10.62,6.27-23.73-.6-35.09,7.17-11.34,7.77-13.74,15.83-27.42,20.61-4.29,1.51-8.2,2.06-11.53,2.11,1.77-8.17,4.95-15.81,9.98-21.83C21.47,6,37.5,0,53.7,0c9.17,0,17.76,1.91,25.29,5.5Z"/>
          <path class="cls-6" d="M107.91,45.95c-7.28,5.67-16.44,11.32-24.28,11.54-15.92,.45-27.09-6.27-36.24-5.38-9.16,.9-25.79,22.85-31.39,18.37-5.61-4.48-2.02-19.26,12.62-27.77,14.64-8.51,29.71-4.93,47.17-9.41,8.97-2.3,15.11-9.57,18.96-16.1,6.76,7.46,11.43,17.18,13.15,28.75Z"/>
          <path class="cls-6" d="M70.88,92.44c-12.13,2.33-22.87,10.12-30.39,17.06-10.95-1.76-20.06-7.1-26.85-14.71,6.76-6,24.02-20.54,33.75-21.61,12.29-1.34,19.1,6.27,31.6,1.34,12.5-4.93,15.54-11.27,21-5.38,5.47,5.9-5.81,18.82-29.11,23.3Z"/>
          <path class="cls-6" d="M100.49,85.27c-9.74,15.4-27.18,24.64-46.8,24.64-2.31,.21-4.56,.28-6.75,.21,2.2-3.28,6.41-8.19,12.73-10.06,9.86-2.91,14.78,0,22.4-3.58,4.15-1.95,11.55-7.02,18.41-11.2Z"/>
          <path class="cls-3" d="M59.23,23c-14.34,2.69-14.63,2.69-20.16,8.81-5.53,6.13-8.18,7.5-16.64,12.34-8.45,4.84-12.19,4.69-13.82,12.9-1.64,8.22-2.84,16.87,4.03,18.66,6.87,1.79,8.81-4.03,14.94-6.42,6.12-2.39,10.75,5.22,3.88,7.31-6.87,2.1-13.57,2.41-17.02,8.66-1.15,2.07-2.64,3.78-4.34,5.04C3.58,81.03,0,69.29,0,56.75c0-4.85,.39-9.78,1.23-14.56,1.74,.11,4.19,.11,7.68-.08,10.9-.59,20.46-8.36,25.84-15.23,5.38-6.86,14.18-13.29,24.78-12.24,10.61,1.04,13.89,1.34,15.83,4.03,1.94,2.69-1.79,1.64-16.13,4.33Z"/>
          <path class="cls-3" d="M39.22,63.17s4.48-6.57,10-7.02c5.53-.45,13.89,4.78,21.8,5.53,7.91,.75,11.35-4.66,16.72-2.03,5.38,2.63,.6,3.97-9.41,5.76-10,1.79-6.51,3.89-2.51,5.68,4,1.79,1.46,3.58-11.23,.89-12.69-2.69-17.47-.44-22.1-.89-4.63-.45-5.69-5.09-3.29-7.92Z"/>
          <path class="cls-3" d="M108.65,54.96c.16,9.52-1.85,18.13-5.49,25.56-1.94,1.07-3.68,1.8-4.35,1.32-1.65-1.2,6.42-8.82,6.27-14.34-.15-5.53-7.47-3.58-10.16-5.38-2.69-1.79-2.83-4.48,2.99-6,3.33-.87,7.5-3.38,10.54-5.37,.11,1.38,.17,2.78,.2,4.2Z"/>
          <path class="cls-2" d="M84.78,8.74c-3.12,3.08-8.04,5.66-12.85,5.78-7.92,.19-17.62,5.64-23.74,5.2-6.13-.43-14.78-3.29-20.31,1.49-5.53,4.78-9.41,11.2-17.47,13.59-3.45,1.02-6.03,1.35-7.85,1.41,1.86-6.94,4.84-13.38,9.19-18.58C21.47,6,37.5,0,53.7,0c9.17,0,17.76,1.91,25.29,5.5,2.01,.96,3.94,2.04,5.79,3.24Z"/>
          <path class="cls-2" d="M105.12,34.71c-6.27,2.67-15.27,7.71-20.35,16.05-3.27,5.37-10.4,10.88-14.94,8.08-4.53-2.8-9.1-9.41-18.06-10.75-8.96-1.34-13.74,2.69-21.21,9.11-7.46,6.42-11.2,10.75-13.74,6.72-2.54-4.03,9.41-18.07,19.71-21.5,10.3-3.44,21.65-4.78,31.65-5.38,10.01-.6,13.64-5.01,9.86-6.95-1.73-.89-4.63-1.27-15.68-.08-11.05,1.2-19.56,5.68-21.35,3.29-1.79-2.39,10.51-8.81,25.54-8.51,15.02,.3,18.06-1.5,20.9-5.67,1.54-2.27,2.51-4.5,3.07-6.06,1.49,1.29,2.9,2.67,4.23,4.14,4.44,4.9,7.98,10.78,10.37,17.51Z"/>
          <path class="cls-2" d="M32.02,58.28s-12.27,10.63-7.65,9.79c4.62-.83,5.97-1.67,9.21-1.7,3.25-.03,4.96-6.3,6.79-8.54,1.83-2.24-1.34-6.34-8.36,.45Z"/>
          <path class="cls-2" d="M90.74,80.79c-6.58,3.14-12.4,3.93-24.79,7.34-12.39,3.41-17.01,8.74-15.08,10.29,1.92,1.55,9.1-.75,15.98-2.39,5.8-1.38,14.68-1.18,17.22,5.47-8.74,5.43-19.21,8.42-30.37,8.42-2.31,.21-4.56,.28-6.75,.21-2.22-.06-4.37-.27-6.46-.62-10.95-1.76-20.06-7.1-26.85-14.71-.57-.65-1.13-1.31-1.68-1.98h0c.11-.23,3.58-7.42,7.4-9.48,3.88-2.09,6.12-1.63,15.68-1.33,9.56,.3,18.66-5.23,24.34-5.08,5.67,.14,10.75,3.73,17.77,2.24,7.02-1.5,14.78-8.95,18.07-8.06,3.28,.9,2.09,6.57-4.48,9.7Z"/>
          <path class="cls-5" d="M104.51,77.5c-.42,1.03-.88,2.03-1.36,3.02-.82,1.64-1.7,3.23-2.66,4.75-1.23,1.94-2.58,3.79-4.06,5.54-3.51,4.2-7.69,7.79-12.36,10.68-8.74,5.43-19.21,8.42-30.37,8.42-2.31,.21-4.56,.28-6.75,.21-2.22-.06-4.37-.27-6.46-.62-10.95-1.76-20.06-7.1-26.85-14.71-.57-.65-1.13-1.31-1.68-1.98h0c-.65-.82-1.27-1.65-1.86-2.5C3.58,81.03,0,69.29,0,56.75c0-4.85,.39-9.78,1.23-14.56,.16-.92,.34-1.84,.54-2.74,.23-1.09,.49-2.18,.79-3.24,1.18-4.39,2.8-8.58,4.95-12.38,0-.02,0-.03,0-.03,1.24-2.2,2.64-4.27,4.24-6.17,3.29-3.93,7.31-7.23,11.82-9.86-.62,1.67-1.16,3.38-1.62,5.12-.3,1.07-.56,2.15-.79,3.24-.2,.9-.38,1.82-.54,2.74-.84,4.78-1.23,9.71-1.23,14.56,0,12.53,3.58,24.28,10.1,33.55,.59,.85,1.22,1.68,1.86,2.49h0c.55,.68,1.1,1.34,1.68,1.99,6.79,7.62,15.9,12.95,26.85,14.71,2.09,.35,4.24,.56,6.46,.62,2.19,.07,4.44,0,6.75-.21,11.16,0,21.63-2.99,30.37-8.42,.36-.22,.71-.45,1.06-.67Z"/>
          <path class="cls-5" d="M96.43,90.81c-3.51,4.2-7.69,7.79-12.36,10.68-8.74,5.43-19.21,8.42-30.37,8.42-2.31,.21-4.56,.28-6.75,.21-2.22-.06-4.37-.27-6.46-.62-10.95-1.76-20.06-7.1-26.85-14.71-.57-.65-1.13-1.31-1.68-1.98h0c-.65-.82-1.27-1.65-1.86-2.5C3.58,81.03,0,69.29,0,56.75c0-4.85,.39-9.78,1.23-14.56,.16-.92,.34-1.84,.54-2.74,.23-1.09,.49-2.18,.79-3.24,1.18-4.39,2.8-8.58,4.95-12.38-.14,.93-4.73,30.3,4.46,49.53,9.35,19.53,19.72,24.61,31.7,26.7,11.67,2.03,30.93,5.48,52.77-9.25Z"/>
          <path class="cls-1" d="M108.65,54.96c.06,3.63-.19,7.12-.73,10.47,0-4.61-3.14-20.49-4.57-24.51-1.43-4.03-3.64-12.7-21.11-27.86C64.76-2.1,35.61,2.59,35.61,2.59c5.78-1.72,11.93-2.59,18.09-2.59,9.17,0,17.76,1.91,25.29,5.5,2.01,.96,3.94,2.04,5.79,3.24,2.02,1.3,3.94,2.74,5.75,4.32,1.49,1.29,2.9,2.67,4.23,4.14,4.44,4.9,7.98,10.78,10.37,17.51,1.26,3.52,2.2,7.28,2.79,11.24,.24,1.57,.42,3.17,.54,4.8,.11,1.38,.17,2.78,.2,4.2Z"/>
          <g>
            <path class="cls-7" d="M39.86,103.58s-.24,2.02,1.03,2.02,2.27-1.62,1.21-2.46c-1.06-.84-2.23-.11-2.24,.45Z"/>
            <path class="cls-7" d="M21.15,91.21s-.95,1.23,0,1.68c.95,.45,1.9-1.23,1.74-1.68s-.9-.95-1.74,0Z"/>
            <path class="cls-7" d="M23.84,11.91c-1.26,.46-3.86,2.18-3.86,3.7s4.98-.95,6.38-1.9c1.4-.95-.54-2.52-2.52-1.79Z"/>
            <path class="cls-7" d="M27.8,92.63c-1.26,.46-3.86,2.18-3.86,3.7s4.33,1.66,5.73,.71c1.4-.95,.12-5.13-1.86-4.4Z"/>
            <path class="cls-7" d="M28.5,8.05s-1.5,.78-1.05,1.36,2.04-.09,2.51-.68c.48-.59-.35-1.3-1.46-.68Z"/>
            <path class="cls-7" d="M32.05,8.98s-1.61,.57-1.26,1.34c.35,.77,2.03,.37,2.59-.22,.57-.58-.13-1.59-1.33-1.13Z"/>
            <path class="cls-7" d="M28.68,13.08s-1.61,.57-1.26,1.34,2.03,.37,2.59-.22-.13-1.59-1.33-1.13Z"/>
            <path class="cls-7" d="M79.54,27.03s-1.61,.57-1.26,1.34c.35,.77,2.03,.37,2.59-.22s-.13-1.59-1.33-1.13Z"/>
            <path class="cls-7" d="M76.01,23.74s-1.1,.39-.75,1.16c.35,.77,1.51,.55,2.08-.03s-.13-1.59-1.33-1.13Z"/>
            <path class="cls-7" d="M90.81,63.39s-1.1,.39-.75,1.16c.35,.77,1.51,.55,2.08-.03,.57-.58-.13-1.59-1.33-1.13Z"/>
            <path class="cls-7" d="M86.5,66.77s-.86,.97-.51,1.74c.35,.77,1.51,.55,2.08-.03,.57-.58,.88-3.16-1.57-1.71Z"/>
            <path class="cls-7" d="M90.56,66.37s-.39,.44-.23,.78c.16,.35,.68,.25,.94-.02,.26-.26,.39-1.42-.7-.77Z"/>
            <path class="cls-7" d="M83.09,65.63s-.39,.44-.23,.78c.16,.35,.68,.25,.94-.02,.26-.26,.39-1.42-.7-.77Z"/>
            <path class="cls-7" d="M81.43,24.57s-1.1-.05-1.29,.75c-.19,.8,.87,1.01,1.44,.69,.57-.32,.69-1.44-.15-1.44Z"/>
            <path class="cls-7" d="M84.94,22.95s-1.79-.07-2.09,1.22c-.31,1.29,1.41,1.63,2.34,1.12,.93-.52,1.12-2.34-.25-2.33Z"/>
            <path class="cls-7" d="M29.22,98.82s-2.9,1.34-2.12,2.46c.78,1.12,3.02,1.79,3.75,.9,.73-.9,1.96-2.8,.78-3.36-1.18-.56-1.59-.45-2.41,0Z"/>
            <path class="cls-7" d="M32.11,95.08s-.89,.06-.27,1.28c.62,1.22,2.92,.66,3.03-.24,.11-.9-.78-2.36-2.76-1.05Z"/>
            <path class="cls-7" d="M34.54,102.6s.22,1.21,1.51,1.32c1.29,.11,1.79-1.9,1.12-2.91-.67-1.01-2.91-.23-2.63,1.59Z"/>
          </g>
        </g>
      </g>
    </g>
  </g>
</svg>