<?xml version="1.0" encoding="UTF-8"?>
<svg xmlns="http://www.w3.org/2000/svg" viewBox="0 0 110.16 112.22">
  <defs>
    <style>
      .cls-1 {
        mix-blend-mode: screen;
        opacity: .65;
      }

      .cls-1, .cls-2, .cls-3, .cls-4 {
        fill: #bcbcbc;
      }

      .cls-5 {
        fill: #ededed;
      }

      .cls-6 {
        fill: #999;
      }

      .cls-7 {
        fill: #848484;
      }

      .cls-8 {
        fill: #adadad;
      }

      .cls-9 {
        fill: #d5d5d5;
      }

      .cls-10 {
        fill: #a3a3a3;
      }

      .cls-3 {
        mix-blend-mode: multiply;
        opacity: .2;
      }

      .cls-4 {
        opacity: .34;
      }

      .cls-11 {
        isolation: isolate;
      }
    </style>
  </defs>
  <g class="cls-11">
    <g id="Layer_2" data-name="Layer 2">
      <g id="OBJECTS">
        <g>
          <path class="cls-9" d="M109.02,66.34c-.2,.96-.42,1.91-.67,2.86,0,.04,0,.07-.02,.11-.19,.69-.39,1.39-.59,2.07-.02,.04-.03,.07-.04,.11-.07,.23-.14,.46-.21,.69t0,.02c-2.69,8.32-7.36,16.02-13.79,22.31-3.33,3.26-7.13,6.15-11.38,8.56-7.55,4.27-14.75,7.76-22.81,8.8-4.13,.55-7.93,.46-11.47-.12-.56-.08-1.1-.19-1.64-.3-8.8-1.77-15.99-6.45-23.01-11.46-6.33-4.5-11.79-10.43-15.87-17.62C3.1,74.54,.8,66.1,.44,57.71,.3,54.45-.03,51.47,0,48.47c.02-.81,.04-1.61,.12-2.43,.22-2.75,.88-5.61,2.31-8.83,1.09-2.44,2.33-4.86,3.74-7.23,0,0,0,0,0-.02h0c.6-1.01,1.23-2.02,1.88-3.01h0v-.02c.3-.46,.61-.91,.92-1.36,4.95-7.18,11.39-13.58,19.25-18.03,.61-.35,1.23-.68,1.85-.99,2.58-1.34,5.2-2.47,7.83-3.39C48.58-.56,59.63-.85,70.31,1.53c.78,.18,1.56,.37,2.34,.57,1.19,.3,2.38,.65,3.57,1.02,.7,.22,1.4,.46,2.09,.71,1.47,.52,2.93,1.08,4.38,1.7,6.07,2.58,9.91,6.06,12.84,9.96,1.01,1.35,1.91,2.74,2.76,4.18,.95,1.61,1.85,3.27,2.74,4.94,.65,1.22,1.31,2.43,1.99,3.65,1.11,1.95,2.09,3.96,2.93,5.99,1.84,4.39,3.05,8.92,3.69,13.48,.15,1.1,.27,2.21,.36,3.32,0,0,0,0,0,0,.4,5.14,.06,10.29-.97,15.29Z"/>
          <path class="cls-4" d="M109.02,66.34c-10.53,4.79-23.07-12.19-30.43-13.08-7.36-.9-12.58,6.94-16.84,13.68-4.26,6.75-17.02,4.91-22.91-1.61-5.88-6.51-7.33-12.52,2.02-16.46,9.35-3.94,19.54,3.72,26.93-5.32,7.39-9.03-6.5-18.73,3.1-24.3,9.6-5.56,24.61-3.75,24.61-3.75h0c1.01,1.35,1.91,2.74,2.76,4.18,.95,1.61,1.85,3.27,2.74,4.94,.65,1.22,1.31,2.43,1.99,3.65,1.11,1.95,2.09,3.96,2.93,5.99,1.84,4.39,3.05,8.92,3.69,13.48,.15,1.1,.27,2.21,.36,3.32,0,0,0,0,0,0,.4,5.14,.06,10.29-.97,15.29Z"/>
          <path class="cls-4" d="M82.31,103.05c-7.55,4.27-14.75,7.76-22.81,8.8-4.13,.55-7.93,.46-11.47-.12-.56-.08-1.1-.19-1.64-.3-8.8-1.77-15.99-6.45-23.01-11.46-6.33-4.5-11.79-10.43-15.87-17.62C3.1,74.54,.8,66.1,.44,57.71,.3,54.45-.03,51.47,0,48.47c.02-.81,.04-1.61,.12-2.43,.22-2.75,.88-5.61,2.31-8.83,1.09-2.44,2.33-4.86,3.74-7.23-.13,.42-3.4,10.74,0,18.49,3.47,7.91,2.68,16.52,12.33,16.84,9.66,.32,13.88,6.94,22.37,9.76,8.49,2.81,7.89,4.86,15.66,3.39,7.76-1.47,9.33-2.82,14.37-9.17,5.04-6.34,7.19-10.17,14.92-9.45,7.74,.73,20.14-18.47,23.8-12.16,0,0,0,.02,.02,.03,.15,1.1,.27,2.21,.36,3.32,0,0,0,0,0,0,1.59,20.57-8.54,41.17-27.68,52Z"/>
          <path class="cls-2" d="M6.17,29.97s0,0,0,.02c0,0,0,0,0-.02h0Z"/>
          <path class="cls-4" d="M68.7,8.41c-2.24,4.21,7.17,9.68,4.9,17.43s-12.52-.36-20.54,1.13c-8.03,1.49-13.71,19.57-20.88,19.31-7.18-.26-10.07-7.58-12.09-14-1.63-5.21-8.54-6.42-11.12-6.69,4.95-7.18,11.39-13.58,19.25-18.03,.61-.35,1.23-.68,1.85-.99C43.12-.26,56.99-1.43,70.31,1.53c.78,.18,1.56,.37,2.34,.57,1.19,.3,2.38,.65,3.57,1.02,.7,.22,1.4,.46,2.09,.71-.7,4.34-7.36,.37-9.6,4.58Z"/>
          <path class="cls-3" d="M93.69,94.5c-3.33,3.26-7.13,6.15-11.38,8.56-7.55,4.27-14.75,7.76-22.81,8.8-4.13,.55-7.93,.46-11.47-.12-.56-.08-1.1-.19-1.64-.3-8.8-1.77-15.99-6.45-23.01-11.46-6.33-4.5-11.79-10.43-15.87-17.62C3.1,74.54,.8,66.1,.44,57.71,.3,54.45-.03,51.47,0,48.47c.02-.81,.04-1.61,.12-2.43,.22-2.75,.88-5.61,2.31-8.83,1.09-2.44,2.33-4.86,3.74-7.23,0,0,0,0,0-.02h0c.6-1.01,1.23-2.02,1.88-3.01-.2,.56-4.6,13.22,2.41,27.55,7.17,14.65,6.27,16.63,15.23,21.57s10.12,5.6,16.82,7.62c6.7,2.02,10.73,8.74,15.21,13.22,4.08,4.08,27.23,3.8,35.96-2.44Z"/>
          <g>
            <path class="cls-2" d="M78.24,30.64s-.54,1.27-.35,4.74c.19,3.47,.93,2.72,2.31,3.62,1.38,.9,2.91,2.05,4.33,2.61,1.42,.56,1.61-.17,3.85,.9,2.02,.96,4.48,1.57,6.42,.41,2.2-1.31,.23-4.45,.23-4.45"/>
            <path class="cls-2" d="M82.78,26.97s-2.05-.48-3.6,2.36,.34,5.94,1.8,7.43c1.46,1.49,7.32,3.16,8.97,3.49s4.89-1.54,4.93-1.73c.04-.19,1.12-3.58,.41-4.33-.71-.75-3.77-4.7-4.33-5-.56-.3-2.05-1.72-3.62-1.83-1.57-.11-4.55-.38-4.55-.38Z"/>
            <path class="cls-8" d="M82.8,29.24s-1.54-.36-2.7,1.77c-1.17,2.13,.25,4.46,1.35,5.58,1.1,1.12,5.5,2.38,6.74,2.62,1.23,.24,3.31-.77,3.7-1.3,.29-.39-.02-2.53-.33-3.24-.43-.97-2.19-3.54-2.61-3.77-.42-.22-1.54-1.29-2.72-1.37-1.18-.08-3.42-.28-3.42-.28Z"/>
            <path class="cls-6" d="M83.44,31.41s-1.08-.25-1.91,1.25c-.82,1.5,.18,3.14,.95,3.93,.78,.79,3.88,1.67,4.75,1.85,.87,.17,2.34-.54,2.61-.92,.2-.27-.01-1.79-.23-2.29-.3-.68-1.54-2.5-1.84-2.66-.3-.16-1.09-.91-1.92-.97-.83-.06-2.41-.2-2.41-.2Z"/>
            <path class="cls-7" d="M79.98,28.43s1.72-1.16,4.91-.54,5.49,2.24,6.61,4.26c1.12,2.02,1.9,3.53,1.9,3.98s.1,1.99-1.09,2.37c-1.19,.39,2.1,.13,2.26,0,.17-.13,2.02-2.54,2.02-2.54l-2.02-5.18-2.52-2.26s-1.54-1.38-3.77-1.62c-2.23-.24-4.24-1.86-6.92-.51-2.69,1.35-1.38,2.06-1.38,2.06Z"/>
            <path class="cls-7" d="M79.56,26.97s-1.37,1.38-1.48,5.71c-.11,4.33,1.98,4.98,3.66,6.02,1.68,1.04,3.1,2.09,4.11,2.5,1.01,.41,4.59,.93,6.12,.71,1.53-.22,4.15-3.9,4.15-3.9,0,0-1.54,1.96-5.31,1.51-3.77-.45-6.79-1.87-6.79-1.87,0,0-1.9-1.19-3.77-3.06-1.87-1.87-1.26-3.36-1.06-4.74,.2-1.38,.38-2.88,.38-2.88Z"/>
            <path class="cls-7" d="M82.33,33.69s0-.29-.55,.13c-.56,.42-1.23,2.07-1.23,2.07,0,0,2.16,1.99,2.41,2.16s1.48,.65,1.48,.65c0,0,.31-.68,.31-.84s-.45-1.01-.87-1.46c-.42-.45-.61-1.61-.94-1.81-.32-.2-.57-.61-.61-.89Z"/>
            <path class="cls-5" d="M92.37,27.97c-1.52-.75-10.7-4.48-12.81-1-2.12,3.48-1.03,7.16,2.6,9.54,0,0,6.89,6.12,12.56,2.67,5.67-3.45-.83-10.47-2.35-11.22Zm.64,10.17c-.83,.51-1.7,.76-2.56,.86-5.43-.53-8.12-5.3-8.12-5.3,.25,1.69,1.41,3.07,2.27,3.89-1.6-.88-2.66-1.82-2.66-1.82-3.21-2.1-3.46-4.94-1.59-8.01,1.86-3.07,9.25-.18,10.59,.47,1.34,.66,7.08,6.86,2.07,9.9Z"/>
          </g>
          <g>
            <path class="cls-2" d="M93.45,64.96s-1.96-1.03-7.54-1.18c-5.59-.15-4.48,1.14-6.1,3.24-1.62,2.1-3.67,4.4-4.75,6.6-1.08,2.2,.06,2.61-1.93,6.04-1.8,3.1-3.09,6.97-1.49,10.23,1.81,3.69,7.1,.95,7.1,.95"/>
            <path class="cls-2" d="M98.74,72.7s1.04-3.22-3.31-6.07c-4.34-2.85-9.55-.23-12.13,1.92-2.58,2.15-6.02,11.32-6.75,13.91-.73,2.59,1.84,8.03,2.13,8.12,.29,.08,5.59,2.26,6.88,1.22,1.29-1.04,8.02-5.43,8.58-6.29,.55-.86,3.02-3.07,3.4-5.56,.38-2.5,1.2-7.25,1.2-7.25Z"/>
            <path class="cls-8" d="M95.1,72.44s.78-2.42-2.48-4.56c-3.26-2.14-7.17-.18-9.11,1.44-1.94,1.62-4.52,8.5-5.07,10.45-.55,1.94,.8,5.41,1.6,6.1,.59,.51,4.06,.3,5.23-.11,1.61-.56,5.96-3.05,6.38-3.69,.41-.64,2.27-2.3,2.55-4.18,.29-1.88,.9-5.44,.9-5.44Z"/>
            <path class="cls-6" d="M91.54,73.19s.55-1.7-1.75-3.22c-2.3-1.51-5.06-.12-6.43,1.02-1.37,1.14-3.19,6-3.57,7.37-.39,1.37,.57,3.81,1.13,4.3,.41,.36,2.86,.21,3.69-.08,1.14-.4,4.2-2.15,4.5-2.6,.29-.45,1.6-1.62,1.8-2.95,.2-1.32,.63-3.84,.63-3.84Z"/>
            <path class="cls-7" d="M96.76,68.02s1.63,2.9,.23,7.94-4.3,8.5-7.68,10.03c-3.37,1.53-5.9,2.59-6.62,2.53-.72-.06-3.19-.09-3.66-2.05-.47-1.96-.49,3.34-.29,3.62,.19,.29,3.81,3.56,3.81,3.56l8.57-2.55,3.95-3.74s2.42-2.29,3.09-5.83c.68-3.54,3.53-6.54,1.72-11.02-1.81-4.48-3.12-2.48-3.12-2.48Z"/>
            <path class="cls-7" d="M99.16,67.55s-2.03-2.38-8.96-3.12c-6.93-.74-8.23,2.52-10.12,5.08s-3.74,4.69-4.53,6.25-2.09,7.23-1.93,9.71c.16,2.48,5.71,7.15,5.71,7.15,0,0-2.94-2.71-1.73-8.7s3.87-10.64,3.87-10.64c0,0,2.16-2.89,5.39-5.64,3.23-2.75,5.55-1.59,7.73-1.08,2.19,.5,4.56,.98,4.56,.98Z"/>
            <path class="cls-7" d="M88.02,71.11s.46,.05-.14-.9c-.6-.95-3.16-2.24-3.16-2.24,0,0-3.46,3.19-3.77,3.58-.3,.38-1.23,2.29-1.23,2.29,0,0,1.04,.58,1.31,.6,.27,.02,1.67-.59,2.44-1.2,.77-.61,2.65-.77,3.02-1.26,.37-.49,1.04-.83,1.51-.86Z"/>
            <path class="cls-5" d="M95.89,87.94c1.39-2.35,8.57-16.56,3.26-20.39-5.29-3.84-11.34-2.58-15.63,2.93,0,0-10.7,10.23-5.92,19.76,4.78,9.53,16.88,.03,18.28-2.3Zm-16.37-.29c-.7-1.4-1-2.82-1.05-4.21,1.55-8.62,9.54-12.32,9.54-12.32-2.74,.18-5.1,1.86-6.53,3.14,1.61-2.45,3.26-4.03,3.26-4.03,3.78-4.86,8.36-4.9,13.04-1.5,4.67,3.38-.91,14.84-2.13,16.9-1.23,2.06-11.91,10.45-16.13,2.03Z"/>
          </g>
          <g>
            <path class="cls-2" d="M19,26.76s1.96,2.32,3.64,2.93c1.68,.62,3.42,.06,6.1-.45,2.69-.5,5.77-1.5,7.17-2.49,1.4-.99,2.63-3.09,3.98-4.48,1.34-1.38,4.37-6.03,4.82-7.21,.45-1.18-.81-2.66-2.53-1.7-1.73,.97-2.06,4.44-3.35,6.2-1.29,1.77-3.47,4.69-6.38,5.89-2.91,1.2-8.51,1.32-10.7,1.29"/>
            <path class="cls-2" d="M21.13,13.85s-2.58,2.24-2.63,5.04,.62,4.54,2.91,5.04c2.3,.5,9.41-.71,11.59-1.64s6.16-5.48,7.17-6.85c1.01-1.36,1.05-4.98-.62-6.74-1.67-1.76-4.09-2.13-6.55-1.68s-8.01,3.86-9.24,4.7c-1.23,.84-2.63,2.13-2.63,2.13Z"/>
            <path class="cls-8" d="M23.42,15.49s-1.89,1.64-1.93,3.69c-.04,2.05,.45,3.32,2.13,3.69,1.68,.37,6.89-.52,8.48-1.2s4.51-4.01,5.25-5.01c.74-1,.77-3.65-.45-4.93-1.22-1.29-2.99-1.56-4.8-1.23s-5.86,2.83-6.76,3.44c-.9,.61-1.93,1.56-1.93,1.56Z"/>
            <path class="cls-6" d="M26.01,17.17s-1.29,1.12-1.32,2.53c-.03,1.4,.31,2.27,1.46,2.53s4.72-.36,5.81-.82,3.09-2.75,3.59-3.43c.51-.68,.53-2.5-.31-3.38-.84-.88-2.05-1.07-3.29-.84-1.24,.22-4.02,1.94-4.63,2.36s-1.32,1.07-1.32,1.07Z"/>
            <path class="cls-7" d="M41.18,10.43l1.34,3.99s-.04,1.45-1.42,3.52c-1.38,2.07-2.11,3.43-2.95,4.35-.84,.91-2.13,2.79-6.61,4.06-4.48,1.27-6.44,2.03-8.23,1.96-1.79-.07-4.31-1.55-4.31-1.55l-3.1-4.82s5.29,2.1,7.53,2.1,6.44-.62,7.67-1.51c1.23-.9,4.2-2.86,6.41-5.32s3.37-4.71,3.67-6.78Z"/>
            <path class="cls-7" d="M19.49,21.76s-.91-1.86,0-4.38c.91-2.52,4.89-4.54,6.68-5.77,1.79-1.23,3.64-2.74,5.26-3.08,1.62-.34,4-1.56,6.07-.7,0,0-1.37-1.32-4.62-1.28-3.25,.04-6.44,1.42-8.49,2.61-2.05,1.19-5.97,3.21-7.11,6.23-1.14,3.02,.07,5.71,.15,5.81,.07,.09,1.23,1.08,1.23,1.08"/>
            <path class="cls-5" d="M40.73,9.4c-2.98-4.17-8.49-4.17-13.89-1.65,0,0-12.25,3.9-11.65,11.81,.6,7.91,13.74,4.93,15.68,3.74,1.94-1.2,12.85-9.73,9.86-13.9Zm-9.25,12.24c-1.71,1.06-13.3,3.69-13.83-3.3-.52-6.98,10.28-10.41,10.28-10.41,4.76-2.23,9.49-1.44,12.12,2.24,2.63,3.67-6.85,10.41-8.57,11.47Z"/>
          </g>
          <g>
            <path class="cls-2" d="M19.68,86.55s-1.1,.33-1.17,1.55c-.07,1.21,.98,5.43,3.48,8.23,2.5,2.8,5.82,5.79,9.97,6.98,4.14,1.19,6.87,2.13,9.41,1.94,2.54-.19,4.41-.07,4.89-1.68,.49-1.61-1.72-3.25-1.83-4.82-.11-1.57,.49-3.97-.8-5.18-1.29-1.22-6.41-3.26-9.2-4.45s-9.42-3.14-11.02-3.25c-1.61-.11-2.43,.04-3.73,.67Z"/>
            <path class="cls-8" d="M24.26,87.79s-.79,.24-.83,1.1c-.05,.87,.7,3.87,2.48,5.87,1.78,2,4.15,4.13,7.11,4.98,2.96,.85,4.9,1.52,6.71,1.38,1.81-.13,3.14-.05,3.49-1.2,.35-1.14-1.22-2.32-1.3-3.43s.35-2.83-.57-3.7c-.92-.87-4.57-2.32-6.56-3.17-1.99-.85-6.72-2.24-7.86-2.32-1.14-.08-1.73,.03-2.66,.48Z"/>
            <path class="cls-6" d="M28.31,90.65s-.44,.13-.46,.61c-.03,.48,.39,2.15,1.38,3.26,.99,1.11,2.31,2.29,3.95,2.76s2.72,.84,3.72,.77c1-.07,1.74-.03,1.94-.66,.19-.64-.68-1.29-.72-1.91-.04-.62,.2-1.57-.32-2.05-.51-.48-2.54-1.29-3.64-1.76-1.1-.47-3.73-1.24-4.36-1.29-.64-.04-.96,.01-1.48,.27Z"/>
            <path class="cls-2" d="M35.4,107.97l1.62,.52c1.62,.52,9.65,.38,11.2-1.11s5.62-3.59,4.72-6.28-.3-3.73-2.85-7.91c-2.55-4.18-10.47-6.86-10.47-6.86,0,0,.86,.36,2.54,2.54,1.68,2.18,4.47,7.37,4.61,8.05,.15,.68,.56,2.2,.52,3.09-.04,.9-.05,3.42-.52,3.92s.09,1.74-1.65,2.18c-1.74,.45-4.87,.62-5.6,.67-.73,.06-3.64-.28-3.64-.28"/>
            <path class="cls-6" d="M18.78,87.15s.11,4.05,3.32,7.07c3.21,3.01,2.61,4.51,6.27,6.07,3.66,1.57,5.3,2.99,8.81,3.66,3.51,.67,4.78,1.05,6.05,.75,1.27-.3,3.02-2.13,3.06-3.14,.04-1.01,1.67,2.29,1.01,4.18s-4.97,2.61-8.4,2.16c-3.43-.45-8.58-1.56-12.69-4.03-4.12-2.47-7.94-9.33-9.03-11.12-1.1-1.79,1.6-5.6,1.6-5.6Z"/>
            <path class="cls-6" d="M18.78,86.24l3.06-2.9c.5-.48,1.19-.71,1.88-.63,1.52,.17,4.53,.57,8.42,1.38,5.71,1.19,11.39,3.66,12.73,5.15,1.34,1.49,2.72,3.81,3.34,5.45,.62,1.64,.99,3.73,1.74,5.08,.75,1.34-1.79,5.97-1.79,5.97,0,0-2.7-6.02-3.67-7.47-.97-1.45,.07-4.41-2.99-5.82-3.06-1.42-11.55-5.44-15.61-5.8-4.06-.37-7.12-.11-7.12-.11"/>
            <path class="cls-6" d="M39.98,96.66l1.53-4.21,2.02,1.94s.73,1.61,.7,1.75,.05,1.29-.18,1.41-1.42,0-1.42,0l-1.23-.51"/>
            <path class="cls-5" d="M45.18,98.28c-.75-2.84-.15-5.23-5.82-7.47-5.68-2.24-12.7-4.78-16.73-5.38-4.03-.59-9.8,3.74-4.28,11.35,0,0,5.63,10.75,20.86,11.65,15.23,.9,6.72-7.32,5.98-10.15Zm.91,8.02c-1.17,1.34-5.32,1.41-9.47,.73-4.14-.67-8.34-2.13-12.99-6.16-4.64-4.03-5.43-7.45-5.43-7.45-.95-2.17-.22-5.15,.84-5.94,1.07-.78,3.69-1.56,10.25,.39,6.55,1.96,13.05,5.38,13.89,6.77,.84,1.41,.5,2.97-.5,2.28-1.01-.68-4.2-.55-2.02,.4,2.19,.96,3.92,1.79,5.04,4.37,1.12,2.58,1.57,3.24,.39,4.59Z"/>
          </g>
          <path class="cls-2" d="M107.49,72.17c.04-.22,.13-.45,.21-.69-.07,.23-.14,.46-.21,.69Z"/>
          <path class="cls-1" d="M109.02,66.34c-.2,.96-.42,1.91-.67,2.86,1.49-7.35-.64-19.71-2.39-22.92-1.94-3.55-6.86-17.21-8.96-21.43-2.1-4.21-4.48-7.58-7.95-9.99-3.47-2.42-8.03-6.69-21.47-9.98-13.12-3.21-28.93-1.77-29.68-1.7C48.58-.56,59.63-.85,70.31,1.53c.78,.18,1.56,.37,2.34,.57,1.19,.3,2.38,.65,3.57,1.02,.7,.22,1.4,.46,2.09,.71,1.47,.52,2.93,1.08,4.38,1.7,6.07,2.58,9.91,6.06,12.84,9.96,1.01,1.35,1.91,2.74,2.76,4.18,.95,1.61,1.85,3.27,2.74,4.94,.65,1.22,1.31,2.43,1.99,3.65,1.11,1.95,2.09,3.96,2.93,5.99,1.84,4.39,3.05,8.92,3.69,13.48,.15,1.1,.27,2.21,.36,3.32,0,0,0,0,0,0,.4,5.14,.06,10.29-.97,15.29Z"/>
          <path class="cls-10" d="M18.62,48.29s-3.12,1.27-3.45,3.85c-.34,2.58,3.08,6.5,8.26,6.61s10.4-2.09,9.99-4.58c-.41-2.49-6.05-10-14.8-5.88Z"/>
          <path class="cls-2" d="M19.63,47.91s-3,.69-3.34,3.27c-.34,2.58,3.08,6.5,8.26,6.61s9.25-1.75,8.84-4.23c-.41-2.49-5.02-9.76-13.76-5.64Z"/>
          <path class="cls-10" d="M65.04,79.64s-.58-2.42-2.99-3.35-6.86,.39-7.99,3.98c-1.13,3.59-.03,7.46,2.19,8.1,2.41,.7,11.03-1.5,8.79-8.73Z"/>
          <path class="cls-2" d="M65.24,80.55s-.08-2.29-2.49-3.22-6.86,.39-7.99,3.98c-1.13,3.59-.14,6.94,2.33,7.33,2.47,.39,10.38-.86,8.15-8.09Z"/>
          <path class="cls-10" d="M55.24,35.56s-.79,1.64,.15,3.28,4.07,2.93,6.36,1.42c2.29-1.52,3.45-4.21,2.48-5.6-1.04-1.5-6.94-4.22-9,.91Z"/>
          <path class="cls-2" d="M55.55,34.96s-1.01,1.33-.07,2.97c.94,1.64,4.07,2.93,6.36,1.42,2.29-1.52,3.27-3.87,2.05-5.23-1.23-1.36-6.28-4.29-8.34,.84Z"/>
          <path class="cls-10" d="M73.41,11.72s-.39,.81,.08,1.62c.46,.81,2.01,1.45,3.14,.7,1.13-.75,1.7-2.08,1.23-2.76-.52-.74-3.43-2.08-4.44,.45Z"/>
          <path class="cls-2" d="M73.57,11.42s-.5,.66-.03,1.47c.46,.81,2.01,1.45,3.14,.7,1.13-.75,1.62-1.91,1.01-2.58-.6-.67-3.1-2.12-4.12,.42Z"/>
        </g>
      </g>
    </g>
  </g>
</svg>