<?xml version="1.0" encoding="UTF-8"?>
<svg id="Layer_2" data-name="Layer 2" xmlns="http://www.w3.org/2000/svg" viewBox="0 0 56.9 56.9">
  <defs>
    <style>
      .cls-1 {
        fill: #fff;
      }
    </style>
  </defs>
  <g id="OBJECTS">
    <g>
      <path class="cls-1" d="M28.45,13.79c-8.08,0-14.66,6.58-14.66,14.66s6.58,14.66,14.66,14.66,14.66-6.58,14.66-14.66-6.58-14.66-14.66-14.66Zm0,24.27c-5.3,0-9.61-4.31-9.61-9.61s4.31-9.61,9.61-9.61,9.61,4.31,9.61,9.61-4.31,9.61-9.61,9.61Z"/>
      <path class="cls-1" d="M43.72,9.51c-.97,0-1.93,.39-2.61,1.08-.69,.69-1.09,1.64-1.09,2.62s.4,1.93,1.09,2.62c.68,.69,1.64,1.08,2.61,1.08s1.93-.4,2.62-1.08c.69-.69,1.08-1.65,1.08-2.62s-.39-1.93-1.08-2.62c-.69-.69-1.64-1.08-2.62-1.08Z"/>
      <path class="cls-1" d="M41.2,0H15.7C7.04,0,0,7.04,0,15.7v25.49c0,8.66,7.04,15.7,15.7,15.7h25.49c8.66,0,15.7-7.04,15.7-15.7V15.7c0-8.66-7.04-15.7-15.7-15.7Zm10.65,41.2c0,5.87-4.78,10.65-10.65,10.65H15.7c-5.87,0-10.65-4.78-10.65-10.65V15.7c0-5.87,4.78-10.65,10.65-10.65h25.49c5.88,0,10.65,4.78,10.65,10.65v25.49Z"/>
    </g>
  </g>
</svg>